<mxfile host="Electron" agent="Mozilla/5.0 (Windows NT 10.0; Win64; x64) AppleWebKit/537.36 (KHTML, like Gecko) draw.io/26.0.9 Chrome/128.0.6613.186 Electron/32.2.5 Safari/537.36" version="26.0.9">
  <diagram name="Страница — 1" id="QS8IncRuUN5mRz8JOaUY">
    <mxGraphModel dx="1247" dy="727" grid="1" gridSize="10" guides="1" tooltips="1" connect="1" arrows="1" fold="1" page="1" pageScale="1" pageWidth="827" pageHeight="1169" math="0" shadow="0">
      <root>
        <mxCell id="0" />
        <mxCell id="1" parent="0" />
        <mxCell id="FJ30JDf7qLVt8mmUW5T5-2" value="" style="edgeStyle=orthogonalEdgeStyle;rounded=0;orthogonalLoop=1;jettySize=auto;html=1;" edge="1" parent="1" source="FJ30JDf7qLVt8mmUW5T5-3">
          <mxGeometry relative="1" as="geometry">
            <mxPoint x="240" y="140" as="targetPoint" />
          </mxGeometry>
        </mxCell>
        <mxCell id="FJ30JDf7qLVt8mmUW5T5-3" value="Начало" style="ellipse;whiteSpace=wrap;html=1;" vertex="1" parent="1">
          <mxGeometry x="180" y="70" width="120" height="40" as="geometry" />
        </mxCell>
        <mxCell id="FJ30JDf7qLVt8mmUW5T5-4" value="" style="edgeStyle=orthogonalEdgeStyle;rounded=0;orthogonalLoop=1;jettySize=auto;html=1;" edge="1" parent="1" source="FJ30JDf7qLVt8mmUW5T5-5">
          <mxGeometry relative="1" as="geometry">
            <mxPoint x="240" y="190" as="targetPoint" />
          </mxGeometry>
        </mxCell>
        <mxCell id="FJ30JDf7qLVt8mmUW5T5-5" value="int main()" style="shape=process;whiteSpace=wrap;html=1;backgroundOutline=1;" vertex="1" parent="1">
          <mxGeometry x="180" y="140" width="120" height="30" as="geometry" />
        </mxCell>
        <mxCell id="FJ30JDf7qLVt8mmUW5T5-6" value="srand(time(NULL));" style="rounded=0;whiteSpace=wrap;html=1;" vertex="1" parent="1">
          <mxGeometry x="180" y="190" width="120" height="30" as="geometry" />
        </mxCell>
        <mxCell id="FJ30JDf7qLVt8mmUW5T5-7" value="" style="edgeStyle=orthogonalEdgeStyle;rounded=0;orthogonalLoop=1;jettySize=auto;html=1;" edge="1" parent="1">
          <mxGeometry relative="1" as="geometry">
            <mxPoint x="240" y="220" as="sourcePoint" />
            <mxPoint x="240" y="240" as="targetPoint" />
          </mxGeometry>
        </mxCell>
        <mxCell id="FJ30JDf7qLVt8mmUW5T5-8" value="setlocale(LC_ALL, &quot;Russian&quot;);" style="rounded=0;whiteSpace=wrap;html=1;" vertex="1" parent="1">
          <mxGeometry x="180" y="240" width="120" height="30" as="geometry" />
        </mxCell>
        <mxCell id="FJ30JDf7qLVt8mmUW5T5-9" value="&lt;div&gt;#define _CRT_SECURE_NO_WARNINGS&lt;/div&gt;&lt;div&gt;#include &amp;lt;iostream&amp;gt;&lt;/div&gt;&lt;div&gt;#include &amp;lt;string&amp;gt;&lt;/div&gt;&lt;div&gt;#include &amp;lt;cmath&amp;gt; // для modf&lt;/div&gt;&lt;div&gt;#include &amp;lt;cstdlib&amp;gt; // для rand и srand&lt;/div&gt;&lt;div&gt;#include &amp;lt;cstdio&amp;gt;&lt;/div&gt;&lt;div&gt;#include &amp;lt;ctime&amp;gt; // для time&lt;/div&gt;&lt;div&gt;using namespace std;&lt;/div&gt;&lt;div&gt;&lt;div&gt;const int SIZE = 100; // Размер хеш-таблицы&lt;/div&gt;&lt;div&gt;const double A = 0.6180339887; // Константа для хеш-функции&lt;/div&gt;&lt;/div&gt;&lt;div&gt;Node* table[SIZE] = { nullptr };&lt;br&gt;&lt;/div&gt;&lt;div&gt;int collisions = 0;&lt;br&gt;&lt;/div&gt;" style="strokeWidth=2;html=1;shape=mxgraph.flowchart.annotation_2;align=left;labelPosition=right;pointerEvents=1;" vertex="1" parent="1">
          <mxGeometry x="320" y="40" width="50" height="160" as="geometry" />
        </mxCell>
        <mxCell id="FJ30JDf7qLVt8mmUW5T5-10" value="" style="endArrow=none;dashed=1;html=1;rounded=0;entryX=-0.04;entryY=0.503;entryDx=0;entryDy=0;entryPerimeter=0;" edge="1" parent="1" target="FJ30JDf7qLVt8mmUW5T5-9">
          <mxGeometry width="50" height="50" relative="1" as="geometry">
            <mxPoint x="240" y="120" as="sourcePoint" />
            <mxPoint x="310" y="120" as="targetPoint" />
          </mxGeometry>
        </mxCell>
        <mxCell id="FJ30JDf7qLVt8mmUW5T5-11" value="" style="edgeStyle=orthogonalEdgeStyle;rounded=0;orthogonalLoop=1;jettySize=auto;html=1;" edge="1" parent="1">
          <mxGeometry relative="1" as="geometry">
            <mxPoint x="243.97142857142853" y="270" as="sourcePoint" />
            <mxPoint x="243.97142857142853" y="290" as="targetPoint" />
          </mxGeometry>
        </mxCell>
        <mxCell id="FJ30JDf7qLVt8mmUW5T5-12" style="edgeStyle=orthogonalEdgeStyle;rounded=0;orthogonalLoop=1;jettySize=auto;html=1;exitX=1;exitY=0.5;exitDx=0;exitDy=0;" edge="1" parent="1" source="FJ30JDf7qLVt8mmUW5T5-13">
          <mxGeometry relative="1" as="geometry">
            <mxPoint x="493.97142857142853" y="400" as="targetPoint" />
          </mxGeometry>
        </mxCell>
        <mxCell id="FJ30JDf7qLVt8mmUW5T5-13" value="" style="verticalLabelPosition=bottom;verticalAlign=top;html=1;shape=hexagon;perimeter=hexagonPerimeter2;arcSize=6;size=0.11951219512195121;" vertex="1" parent="1">
          <mxGeometry x="139.47142857142853" y="290" width="205" height="50" as="geometry" />
        </mxCell>
        <mxCell id="FJ30JDf7qLVt8mmUW5T5-14" value="" style="edgeStyle=orthogonalEdgeStyle;rounded=0;orthogonalLoop=1;jettySize=auto;html=1;" edge="1" parent="1">
          <mxGeometry relative="1" as="geometry">
            <mxPoint x="243.73142857142852" y="340" as="sourcePoint" />
            <mxPoint x="243.97142857142853" y="360" as="targetPoint" />
          </mxGeometry>
        </mxCell>
        <mxCell id="FJ30JDf7qLVt8mmUW5T5-15" value="for (int i = 0; i &amp;lt; 40; i++)&amp;nbsp;" style="text;html=1;align=center;verticalAlign=middle;whiteSpace=wrap;rounded=0;" vertex="1" parent="1">
          <mxGeometry x="183.97142857142853" y="300" width="120" height="30" as="geometry" />
        </mxCell>
        <mxCell id="FJ30JDf7qLVt8mmUW5T5-16" value="" style="edgeStyle=orthogonalEdgeStyle;rounded=0;orthogonalLoop=1;jettySize=auto;html=1;entryX=0;entryY=0.5;entryDx=0;entryDy=0;" edge="1" parent="1" target="FJ30JDf7qLVt8mmUW5T5-13">
          <mxGeometry relative="1" as="geometry">
            <mxPoint x="243.97142857142853" y="390" as="sourcePoint" />
            <mxPoint x="123.97142857142853" y="360" as="targetPoint" />
            <Array as="points">
              <mxPoint x="243.97142857142853" y="440" />
              <mxPoint x="119.97142857142853" y="440" />
              <mxPoint x="119.97142857142853" y="315" />
            </Array>
          </mxGeometry>
        </mxCell>
        <mxCell id="FJ30JDf7qLVt8mmUW5T5-17" value="insert(table, generateStudent(), collisions);" style="rounded=0;whiteSpace=wrap;html=1;" vertex="1" parent="1">
          <mxGeometry x="160" y="360" width="180" height="30" as="geometry" />
        </mxCell>
        <mxCell id="FJ30JDf7qLVt8mmUW5T5-18" style="edgeStyle=orthogonalEdgeStyle;rounded=0;orthogonalLoop=1;jettySize=auto;html=1;exitX=0.5;exitY=1;exitDx=0;exitDy=0;" edge="1" parent="1" source="FJ30JDf7qLVt8mmUW5T5-19">
          <mxGeometry relative="1" as="geometry">
            <mxPoint x="490.3103448275863" y="450" as="targetPoint" />
          </mxGeometry>
        </mxCell>
        <mxCell id="FJ30JDf7qLVt8mmUW5T5-19" value="cout &amp;lt;&amp;lt; &quot;Коллизии для 40 объектов: &quot;&lt;div&gt;&amp;nbsp;&amp;lt;&amp;lt; collisions &amp;lt;&amp;lt; endl;&lt;/div&gt;" style="shape=parallelogram;perimeter=parallelogramPerimeter;whiteSpace=wrap;html=1;fixedSize=1;" vertex="1" parent="1">
          <mxGeometry x="340" y="400" width="300" height="30" as="geometry" />
        </mxCell>
        <mxCell id="FJ30JDf7qLVt8mmUW5T5-20" value="saveToFile(table);" style="rounded=0;whiteSpace=wrap;html=1;" vertex="1" parent="1">
          <mxGeometry x="430" y="450" width="120" height="30" as="geometry" />
        </mxCell>
        <mxCell id="FJ30JDf7qLVt8mmUW5T5-21" style="edgeStyle=orthogonalEdgeStyle;rounded=0;orthogonalLoop=1;jettySize=auto;html=1;exitX=0.5;exitY=1;exitDx=0;exitDy=0;" edge="1" parent="1">
          <mxGeometry relative="1" as="geometry">
            <mxPoint x="490.3103448275863" y="500" as="targetPoint" />
            <mxPoint x="490" y="480" as="sourcePoint" />
          </mxGeometry>
        </mxCell>
        <mxCell id="FJ30JDf7qLVt8mmUW5T5-22" value="collisions = 0;" style="rounded=0;whiteSpace=wrap;html=1;" vertex="1" parent="1">
          <mxGeometry x="430" y="500" width="120" height="30" as="geometry" />
        </mxCell>
        <mxCell id="FJ30JDf7qLVt8mmUW5T5-23" style="edgeStyle=orthogonalEdgeStyle;rounded=0;orthogonalLoop=1;jettySize=auto;html=1;exitX=0.5;exitY=1;exitDx=0;exitDy=0;" edge="1" parent="1">
          <mxGeometry relative="1" as="geometry">
            <mxPoint x="490.3103448275863" y="550" as="targetPoint" />
            <mxPoint x="490" y="530" as="sourcePoint" />
          </mxGeometry>
        </mxCell>
        <mxCell id="FJ30JDf7qLVt8mmUW5T5-24" value="loadFromFile(table, collisions);" style="rounded=0;whiteSpace=wrap;html=1;" vertex="1" parent="1">
          <mxGeometry x="430" y="550" width="120" height="30" as="geometry" />
        </mxCell>
        <mxCell id="FJ30JDf7qLVt8mmUW5T5-25" style="edgeStyle=orthogonalEdgeStyle;rounded=0;orthogonalLoop=1;jettySize=auto;html=1;exitX=0.5;exitY=1;exitDx=0;exitDy=0;" edge="1" parent="1">
          <mxGeometry relative="1" as="geometry">
            <mxPoint x="490.3103448275863" y="600" as="targetPoint" />
            <mxPoint x="490" y="580" as="sourcePoint" />
          </mxGeometry>
        </mxCell>
        <mxCell id="FJ30JDf7qLVt8mmUW5T5-26" value="&amp;nbsp;cout &amp;lt;&amp;lt; &quot;Коллизии после загрузки из файла: &quot; &amp;lt;&amp;lt; collisions &amp;lt;&amp;lt; endl;" style="shape=parallelogram;perimeter=parallelogramPerimeter;whiteSpace=wrap;html=1;fixedSize=1;" vertex="1" parent="1">
          <mxGeometry x="360" y="600" width="300" height="30" as="geometry" />
        </mxCell>
        <mxCell id="FJ30JDf7qLVt8mmUW5T5-27" value="" style="edgeStyle=orthogonalEdgeStyle;rounded=0;orthogonalLoop=1;jettySize=auto;html=1;" edge="1" parent="1">
          <mxGeometry relative="1" as="geometry">
            <mxPoint x="493.97142857142853" y="630" as="sourcePoint" />
            <mxPoint x="493.97142857142853" y="650" as="targetPoint" />
          </mxGeometry>
        </mxCell>
        <mxCell id="FJ30JDf7qLVt8mmUW5T5-28" style="edgeStyle=orthogonalEdgeStyle;rounded=0;orthogonalLoop=1;jettySize=auto;html=1;exitX=1;exitY=0.5;exitDx=0;exitDy=0;" edge="1" parent="1" source="FJ30JDf7qLVt8mmUW5T5-29">
          <mxGeometry relative="1" as="geometry">
            <mxPoint x="743.9714285714285" y="760" as="targetPoint" />
          </mxGeometry>
        </mxCell>
        <mxCell id="FJ30JDf7qLVt8mmUW5T5-29" value="" style="verticalLabelPosition=bottom;verticalAlign=top;html=1;shape=hexagon;perimeter=hexagonPerimeter2;arcSize=6;size=0.11951219512195121;" vertex="1" parent="1">
          <mxGeometry x="389.47142857142853" y="650" width="205" height="50" as="geometry" />
        </mxCell>
        <mxCell id="FJ30JDf7qLVt8mmUW5T5-30" value="" style="edgeStyle=orthogonalEdgeStyle;rounded=0;orthogonalLoop=1;jettySize=auto;html=1;" edge="1" parent="1">
          <mxGeometry relative="1" as="geometry">
            <mxPoint x="493.7314285714285" y="700" as="sourcePoint" />
            <mxPoint x="493.97142857142853" y="720" as="targetPoint" />
          </mxGeometry>
        </mxCell>
        <mxCell id="FJ30JDf7qLVt8mmUW5T5-31" value="for (int i = 40; i &amp;lt; 75; i++)&amp;nbsp;" style="text;html=1;align=center;verticalAlign=middle;whiteSpace=wrap;rounded=0;" vertex="1" parent="1">
          <mxGeometry x="433.97142857142853" y="660" width="120" height="30" as="geometry" />
        </mxCell>
        <mxCell id="FJ30JDf7qLVt8mmUW5T5-32" value="" style="edgeStyle=orthogonalEdgeStyle;rounded=0;orthogonalLoop=1;jettySize=auto;html=1;entryX=0;entryY=0.5;entryDx=0;entryDy=0;" edge="1" parent="1" target="FJ30JDf7qLVt8mmUW5T5-29">
          <mxGeometry relative="1" as="geometry">
            <mxPoint x="493.97142857142853" y="750" as="sourcePoint" />
            <mxPoint x="373.97142857142853" y="720" as="targetPoint" />
            <Array as="points">
              <mxPoint x="493.97142857142853" y="800" />
              <mxPoint x="369.97142857142853" y="800" />
              <mxPoint x="369.97142857142853" y="675" />
            </Array>
          </mxGeometry>
        </mxCell>
        <mxCell id="FJ30JDf7qLVt8mmUW5T5-33" value="insert(table, generateStudent(), collisions);" style="rounded=0;whiteSpace=wrap;html=1;" vertex="1" parent="1">
          <mxGeometry x="390" y="720" width="210" height="30" as="geometry" />
        </mxCell>
        <mxCell id="FJ30JDf7qLVt8mmUW5T5-34" value="cout &amp;lt;&amp;lt; &quot;Коллизии для 75 объектов: &quot;&lt;div&gt;&amp;nbsp;&amp;lt;&amp;lt; collisions &amp;lt;&amp;lt; endl;&lt;/div&gt;" style="shape=parallelogram;perimeter=parallelogramPerimeter;whiteSpace=wrap;html=1;fixedSize=1;" vertex="1" parent="1">
          <mxGeometry x="600" y="760" width="300" height="30" as="geometry" />
        </mxCell>
        <mxCell id="FJ30JDf7qLVt8mmUW5T5-35" value="" style="edgeStyle=orthogonalEdgeStyle;rounded=0;orthogonalLoop=1;jettySize=auto;html=1;" edge="1" parent="1">
          <mxGeometry relative="1" as="geometry">
            <mxPoint x="744.0014285714285" y="790" as="sourcePoint" />
            <mxPoint x="744.0014285714285" y="810" as="targetPoint" />
          </mxGeometry>
        </mxCell>
        <mxCell id="FJ30JDf7qLVt8mmUW5T5-36" style="edgeStyle=orthogonalEdgeStyle;rounded=0;orthogonalLoop=1;jettySize=auto;html=1;exitX=1;exitY=0.5;exitDx=0;exitDy=0;" edge="1" parent="1" source="FJ30JDf7qLVt8mmUW5T5-37">
          <mxGeometry relative="1" as="geometry">
            <mxPoint x="994.0014285714285" y="920" as="targetPoint" />
          </mxGeometry>
        </mxCell>
        <mxCell id="FJ30JDf7qLVt8mmUW5T5-37" value="" style="verticalLabelPosition=bottom;verticalAlign=top;html=1;shape=hexagon;perimeter=hexagonPerimeter2;arcSize=6;size=0.11951219512195121;" vertex="1" parent="1">
          <mxGeometry x="639.5014285714285" y="810" width="205" height="50" as="geometry" />
        </mxCell>
        <mxCell id="FJ30JDf7qLVt8mmUW5T5-38" value="" style="edgeStyle=orthogonalEdgeStyle;rounded=0;orthogonalLoop=1;jettySize=auto;html=1;" edge="1" parent="1">
          <mxGeometry relative="1" as="geometry">
            <mxPoint x="743.7614285714285" y="860" as="sourcePoint" />
            <mxPoint x="744.0014285714285" y="880" as="targetPoint" />
          </mxGeometry>
        </mxCell>
        <mxCell id="FJ30JDf7qLVt8mmUW5T5-39" value="for (int i = 75; i &amp;lt; 90; i++)&amp;nbsp;" style="text;html=1;align=center;verticalAlign=middle;whiteSpace=wrap;rounded=0;" vertex="1" parent="1">
          <mxGeometry x="684.0014285714285" y="820" width="120" height="30" as="geometry" />
        </mxCell>
        <mxCell id="FJ30JDf7qLVt8mmUW5T5-40" value="" style="edgeStyle=orthogonalEdgeStyle;rounded=0;orthogonalLoop=1;jettySize=auto;html=1;entryX=0;entryY=0.5;entryDx=0;entryDy=0;" edge="1" parent="1" target="FJ30JDf7qLVt8mmUW5T5-37">
          <mxGeometry relative="1" as="geometry">
            <mxPoint x="744.0014285714285" y="910" as="sourcePoint" />
            <mxPoint x="624.0014285714285" y="880" as="targetPoint" />
            <Array as="points">
              <mxPoint x="744.0014285714285" y="960" />
              <mxPoint x="620.0014285714285" y="960" />
              <mxPoint x="620.0014285714285" y="835" />
            </Array>
          </mxGeometry>
        </mxCell>
        <mxCell id="FJ30JDf7qLVt8mmUW5T5-41" value="insert(table, generateStudent(), collisions);" style="rounded=0;whiteSpace=wrap;html=1;" vertex="1" parent="1">
          <mxGeometry x="640.03" y="880" width="210" height="30" as="geometry" />
        </mxCell>
        <mxCell id="FJ30JDf7qLVt8mmUW5T5-42" value="cout &amp;lt;&amp;lt; &quot;Коллизии для 90 объектов: &quot;&amp;nbsp;&lt;div&gt;&amp;lt;&amp;lt; collisions &amp;lt;&amp;lt; endl;&lt;/div&gt;" style="shape=parallelogram;perimeter=parallelogramPerimeter;whiteSpace=wrap;html=1;fixedSize=1;" vertex="1" parent="1">
          <mxGeometry x="850.03" y="920" width="300" height="30" as="geometry" />
        </mxCell>
        <mxCell id="FJ30JDf7qLVt8mmUW5T5-43" value="" style="edgeStyle=orthogonalEdgeStyle;rounded=0;orthogonalLoop=1;jettySize=auto;html=1;" edge="1" parent="1">
          <mxGeometry relative="1" as="geometry">
            <mxPoint x="993.7314285714285" y="950" as="sourcePoint" />
            <mxPoint x="993.9714285714285" y="970" as="targetPoint" />
          </mxGeometry>
        </mxCell>
        <mxCell id="FJ30JDf7qLVt8mmUW5T5-44" value="Student example = { &quot;Молочко Артём Анатольевич&quot;, &quot;111&quot;, &quot;111&quot;, &quot;23.01.2006&quot; };" style="rounded=0;whiteSpace=wrap;html=1;" vertex="1" parent="1">
          <mxGeometry x="850" y="970" width="310" height="30" as="geometry" />
        </mxCell>
        <mxCell id="FJ30JDf7qLVt8mmUW5T5-45" value="" style="edgeStyle=orthogonalEdgeStyle;rounded=0;orthogonalLoop=1;jettySize=auto;html=1;" edge="1" parent="1">
          <mxGeometry relative="1" as="geometry">
            <mxPoint x="993.7614285714285" y="1000" as="sourcePoint" />
            <mxPoint x="994.0014285714285" y="1020" as="targetPoint" />
          </mxGeometry>
        </mxCell>
        <mxCell id="FJ30JDf7qLVt8mmUW5T5-46" value="insert(table, example, collisions);" style="rounded=0;whiteSpace=wrap;html=1;" vertex="1" parent="1">
          <mxGeometry x="850.03" y="1020" width="310" height="30" as="geometry" />
        </mxCell>
        <mxCell id="FJ30JDf7qLVt8mmUW5T5-47" value="" style="edgeStyle=orthogonalEdgeStyle;rounded=0;orthogonalLoop=1;jettySize=auto;html=1;" edge="1" parent="1">
          <mxGeometry relative="1" as="geometry">
            <mxPoint x="993.7614285714285" y="1050" as="sourcePoint" />
            <mxPoint x="994.0014285714285" y="1070" as="targetPoint" />
          </mxGeometry>
        </mxCell>
        <mxCell id="FJ30JDf7qLVt8mmUW5T5-48" value="string searchKey = &quot;23.01.2006&quot;;" style="rounded=0;whiteSpace=wrap;html=1;" vertex="1" parent="1">
          <mxGeometry x="850.03" y="1070" width="310" height="30" as="geometry" />
        </mxCell>
        <mxCell id="FJ30JDf7qLVt8mmUW5T5-49" value="" style="edgeStyle=orthogonalEdgeStyle;rounded=0;orthogonalLoop=1;jettySize=auto;html=1;" edge="1" parent="1">
          <mxGeometry relative="1" as="geometry">
            <mxPoint x="993.7914285714285" y="1100" as="sourcePoint" />
            <mxPoint x="994.0314285714285" y="1120" as="targetPoint" />
          </mxGeometry>
        </mxCell>
        <mxCell id="FJ30JDf7qLVt8mmUW5T5-50" value="Student* foundStudent = search(table, searchKey);" style="rounded=0;whiteSpace=wrap;html=1;" vertex="1" parent="1">
          <mxGeometry x="850.06" y="1120" width="310" height="30" as="geometry" />
        </mxCell>
        <mxCell id="FJ30JDf7qLVt8mmUW5T5-51" value="" style="edgeStyle=orthogonalEdgeStyle;rounded=0;orthogonalLoop=1;jettySize=auto;html=1;" edge="1" parent="1">
          <mxGeometry relative="1" as="geometry">
            <mxPoint x="993.702857142857" y="1150" as="sourcePoint" />
            <mxPoint x="993.9428571428571" y="1170" as="targetPoint" />
          </mxGeometry>
        </mxCell>
        <mxCell id="FJ30JDf7qLVt8mmUW5T5-52" value="" style="edgeStyle=orthogonalEdgeStyle;rounded=0;orthogonalLoop=1;jettySize=auto;html=1;" edge="1" parent="1">
          <mxGeometry relative="1" as="geometry">
            <mxPoint x="993.9428571428571" y="1150" as="sourcePoint" />
            <mxPoint x="993.9428571428571" y="1170" as="targetPoint" />
          </mxGeometry>
        </mxCell>
        <mxCell id="FJ30JDf7qLVt8mmUW5T5-53" style="edgeStyle=orthogonalEdgeStyle;rounded=0;orthogonalLoop=1;jettySize=auto;html=1;exitX=0;exitY=0.5;exitDx=0;exitDy=0;" edge="1" parent="1" source="FJ30JDf7qLVt8mmUW5T5-55">
          <mxGeometry relative="1" as="geometry">
            <mxPoint x="850" y="1260" as="targetPoint" />
          </mxGeometry>
        </mxCell>
        <mxCell id="FJ30JDf7qLVt8mmUW5T5-54" style="edgeStyle=orthogonalEdgeStyle;rounded=0;orthogonalLoop=1;jettySize=auto;html=1;exitX=1;exitY=0.5;exitDx=0;exitDy=0;" edge="1" parent="1" source="FJ30JDf7qLVt8mmUW5T5-55">
          <mxGeometry relative="1" as="geometry">
            <mxPoint x="1149.9999999999998" y="1260" as="targetPoint" />
          </mxGeometry>
        </mxCell>
        <mxCell id="FJ30JDf7qLVt8mmUW5T5-55" value="if (foundStudent != nullptr)&amp;nbsp;" style="rhombus;whiteSpace=wrap;html=1;" vertex="1" parent="1">
          <mxGeometry x="930" y="1170" width="130" height="80" as="geometry" />
        </mxCell>
        <mxCell id="FJ30JDf7qLVt8mmUW5T5-56" style="edgeStyle=orthogonalEdgeStyle;rounded=0;orthogonalLoop=1;jettySize=auto;html=1;exitX=0.5;exitY=1;exitDx=0;exitDy=0;" edge="1" parent="1">
          <mxGeometry relative="1" as="geometry">
            <mxPoint x="999.9999999999998" y="1310" as="targetPoint" />
            <Array as="points">
              <mxPoint x="850" y="1310" />
            </Array>
            <mxPoint x="850" y="1290" as="sourcePoint" />
          </mxGeometry>
        </mxCell>
        <mxCell id="FJ30JDf7qLVt8mmUW5T5-57" style="edgeStyle=orthogonalEdgeStyle;rounded=0;orthogonalLoop=1;jettySize=auto;html=1;exitX=0.5;exitY=1;exitDx=0;exitDy=0;" edge="1" parent="1">
          <mxGeometry relative="1" as="geometry">
            <mxPoint x="999.9999999999998" y="1310" as="targetPoint" />
            <Array as="points">
              <mxPoint x="1150" y="1310" />
            </Array>
            <mxPoint x="1150" y="1290" as="sourcePoint" />
          </mxGeometry>
        </mxCell>
        <mxCell id="FJ30JDf7qLVt8mmUW5T5-58" value="cout &amp;lt;&amp;lt; &quot;Найден студент: &quot; &amp;lt;&amp;lt; foundStudent-&amp;gt;fio &amp;lt;&amp;lt; endl;" style="shape=parallelogram;perimeter=parallelogramPerimeter;whiteSpace=wrap;html=1;fixedSize=1;" vertex="1" parent="1">
          <mxGeometry x="670" y="1260" width="230" height="30" as="geometry" />
        </mxCell>
        <mxCell id="FJ30JDf7qLVt8mmUW5T5-59" value="&amp;nbsp;cout &amp;lt;&amp;lt; &quot;Студент с датой рождения &quot; &amp;lt;&amp;lt; searchKey &amp;lt;&amp;lt; &quot; не найден.&quot; &amp;lt;&amp;lt; endl;" style="shape=parallelogram;perimeter=parallelogramPerimeter;whiteSpace=wrap;html=1;fixedSize=1;" vertex="1" parent="1">
          <mxGeometry x="1050" y="1260" width="230" height="30" as="geometry" />
        </mxCell>
        <mxCell id="FJ30JDf7qLVt8mmUW5T5-60" value="" style="edgeStyle=orthogonalEdgeStyle;rounded=0;orthogonalLoop=1;jettySize=auto;html=1;" edge="1" parent="1">
          <mxGeometry relative="1" as="geometry">
            <mxPoint x="1003.7614285714285" y="1310" as="sourcePoint" />
            <mxPoint x="1004.0014285714285" y="1330" as="targetPoint" />
          </mxGeometry>
        </mxCell>
        <mxCell id="FJ30JDf7qLVt8mmUW5T5-61" value="string deleteKey = &quot;23.01.2006&quot;;" style="rounded=0;whiteSpace=wrap;html=1;" vertex="1" parent="1">
          <mxGeometry x="860.03" y="1330" width="310" height="30" as="geometry" />
        </mxCell>
        <mxCell id="FJ30JDf7qLVt8mmUW5T5-62" value="" style="edgeStyle=orthogonalEdgeStyle;rounded=0;orthogonalLoop=1;jettySize=auto;html=1;" edge="1" parent="1">
          <mxGeometry relative="1" as="geometry">
            <mxPoint x="1003.7614285714285" y="1360" as="sourcePoint" />
            <mxPoint x="1004.0014285714285" y="1380" as="targetPoint" />
          </mxGeometry>
        </mxCell>
        <mxCell id="FJ30JDf7qLVt8mmUW5T5-63" value="remove(table, deleteKey);" style="rounded=0;whiteSpace=wrap;html=1;" vertex="1" parent="1">
          <mxGeometry x="860.03" y="1380" width="310" height="30" as="geometry" />
        </mxCell>
        <mxCell id="FJ30JDf7qLVt8mmUW5T5-64" value="" style="edgeStyle=orthogonalEdgeStyle;rounded=0;orthogonalLoop=1;jettySize=auto;html=1;" edge="1" parent="1">
          <mxGeometry relative="1" as="geometry">
            <mxPoint x="1003.7914285714285" y="1410" as="sourcePoint" />
            <mxPoint x="1004.0314285714285" y="1430" as="targetPoint" />
          </mxGeometry>
        </mxCell>
        <mxCell id="FJ30JDf7qLVt8mmUW5T5-65" value="cout &amp;lt;&amp;lt; &quot;Студент с датой рождения &quot; &amp;lt;&amp;lt; deleteKey &amp;lt;&amp;lt; &quot; удалён.&quot; &amp;lt;&amp;lt; endl;" style="shape=parallelogram;perimeter=parallelogramPerimeter;whiteSpace=wrap;html=1;fixedSize=1;" vertex="1" parent="1">
          <mxGeometry x="890.06" y="1430" width="230" height="30" as="geometry" />
        </mxCell>
        <mxCell id="FJ30JDf7qLVt8mmUW5T5-66" value="" style="edgeStyle=orthogonalEdgeStyle;rounded=0;orthogonalLoop=1;jettySize=auto;html=1;" edge="1" parent="1">
          <mxGeometry relative="1" as="geometry">
            <mxPoint x="1003.9714285714285" y="1460" as="sourcePoint" />
            <mxPoint x="1003.9714285714285" y="1480" as="targetPoint" />
          </mxGeometry>
        </mxCell>
        <mxCell id="FJ30JDf7qLVt8mmUW5T5-67" style="edgeStyle=orthogonalEdgeStyle;rounded=0;orthogonalLoop=1;jettySize=auto;html=1;exitX=1;exitY=0.5;exitDx=0;exitDy=0;" edge="1" parent="1" source="FJ30JDf7qLVt8mmUW5T5-68">
          <mxGeometry relative="1" as="geometry">
            <mxPoint x="1253.9714285714285" y="1590" as="targetPoint" />
          </mxGeometry>
        </mxCell>
        <mxCell id="FJ30JDf7qLVt8mmUW5T5-68" value="" style="verticalLabelPosition=bottom;verticalAlign=top;html=1;shape=hexagon;perimeter=hexagonPerimeter2;arcSize=6;size=0.11951219512195121;" vertex="1" parent="1">
          <mxGeometry x="899.4714285714285" y="1480" width="205" height="50" as="geometry" />
        </mxCell>
        <mxCell id="FJ30JDf7qLVt8mmUW5T5-69" value="for (int i = 0; i &amp;lt; SIZE; i++)&amp;nbsp;" style="text;html=1;align=center;verticalAlign=middle;whiteSpace=wrap;rounded=0;" vertex="1" parent="1">
          <mxGeometry x="943.9714285714285" y="1490" width="120" height="30" as="geometry" />
        </mxCell>
        <mxCell id="FJ30JDf7qLVt8mmUW5T5-70" value="" style="edgeStyle=orthogonalEdgeStyle;rounded=0;orthogonalLoop=1;jettySize=auto;html=1;" edge="1" parent="1">
          <mxGeometry relative="1" as="geometry">
            <mxPoint x="1007.702857142857" y="1530" as="sourcePoint" />
            <mxPoint x="1007.9428571428571" y="1550" as="targetPoint" />
          </mxGeometry>
        </mxCell>
        <mxCell id="FJ30JDf7qLVt8mmUW5T5-71" value="" style="edgeStyle=orthogonalEdgeStyle;rounded=0;orthogonalLoop=1;jettySize=auto;html=1;" edge="1" parent="1">
          <mxGeometry relative="1" as="geometry">
            <mxPoint x="1007.9428571428571" y="1530" as="sourcePoint" />
            <mxPoint x="1007.9428571428571" y="1550" as="targetPoint" />
          </mxGeometry>
        </mxCell>
        <mxCell id="FJ30JDf7qLVt8mmUW5T5-80" value="return 0;" style="ellipse;whiteSpace=wrap;html=1;" vertex="1" parent="1">
          <mxGeometry x="1200" y="1590" width="120" height="40" as="geometry" />
        </mxCell>
        <mxCell id="FJ30JDf7qLVt8mmUW5T5-81" value="}" style="text;html=1;align=center;verticalAlign=middle;resizable=0;points=[];autosize=1;strokeColor=none;fillColor=none;" vertex="1" parent="1">
          <mxGeometry x="1290" y="1620" width="30" height="30" as="geometry" />
        </mxCell>
        <mxCell id="FJ30JDf7qLVt8mmUW5T5-82" value="{" style="text;html=1;align=center;verticalAlign=middle;resizable=0;points=[];autosize=1;strokeColor=none;fillColor=none;" vertex="1" parent="1">
          <mxGeometry x="145" y="108" width="30" height="30" as="geometry" />
        </mxCell>
        <mxCell id="FJ30JDf7qLVt8mmUW5T5-84" style="edgeStyle=orthogonalEdgeStyle;rounded=0;orthogonalLoop=1;jettySize=auto;html=1;exitX=0.5;exitY=1;exitDx=0;exitDy=0;" edge="1" parent="1" source="FJ30JDf7qLVt8mmUW5T5-83">
          <mxGeometry relative="1" as="geometry">
            <mxPoint x="1002.1428571428571" y="1600" as="targetPoint" />
          </mxGeometry>
        </mxCell>
        <mxCell id="FJ30JDf7qLVt8mmUW5T5-83" value="Node* current = table[i];" style="rounded=0;whiteSpace=wrap;html=1;" vertex="1" parent="1">
          <mxGeometry x="911.99" y="1550" width="179.97" height="30" as="geometry" />
        </mxCell>
        <mxCell id="FJ30JDf7qLVt8mmUW5T5-87" style="edgeStyle=orthogonalEdgeStyle;rounded=0;orthogonalLoop=1;jettySize=auto;html=1;exitX=0.5;exitY=1;exitDx=0;exitDy=0;" edge="1" parent="1" source="FJ30JDf7qLVt8mmUW5T5-85">
          <mxGeometry relative="1" as="geometry">
            <mxPoint x="999.8571428571429" y="1700" as="targetPoint" />
          </mxGeometry>
        </mxCell>
        <mxCell id="FJ30JDf7qLVt8mmUW5T5-94" style="edgeStyle=orthogonalEdgeStyle;rounded=0;orthogonalLoop=1;jettySize=auto;html=1;exitX=1;exitY=0.5;exitDx=0;exitDy=0;entryX=0;entryY=0.5;entryDx=0;entryDy=0;" edge="1" parent="1" source="FJ30JDf7qLVt8mmUW5T5-85" target="FJ30JDf7qLVt8mmUW5T5-68">
          <mxGeometry relative="1" as="geometry">
            <Array as="points">
              <mxPoint x="1120" y="1640" />
              <mxPoint x="1120" y="1870" />
              <mxPoint x="830" y="1870" />
              <mxPoint x="830" y="1505" />
            </Array>
          </mxGeometry>
        </mxCell>
        <mxCell id="FJ30JDf7qLVt8mmUW5T5-85" value="while (current != nullptr)" style="rhombus;whiteSpace=wrap;html=1;" vertex="1" parent="1">
          <mxGeometry x="930" y="1600" width="140" height="80" as="geometry" />
        </mxCell>
        <mxCell id="FJ30JDf7qLVt8mmUW5T5-88" value="Node* temp = current;" style="rounded=0;whiteSpace=wrap;html=1;" vertex="1" parent="1">
          <mxGeometry x="905.01" y="1700" width="179.97" height="30" as="geometry" />
        </mxCell>
        <mxCell id="FJ30JDf7qLVt8mmUW5T5-89" style="edgeStyle=orthogonalEdgeStyle;rounded=0;orthogonalLoop=1;jettySize=auto;html=1;exitX=0.5;exitY=1;exitDx=0;exitDy=0;" edge="1" parent="1">
          <mxGeometry relative="1" as="geometry">
            <mxPoint x="999.8571428571429" y="1750" as="targetPoint" />
            <mxPoint x="1000" y="1730" as="sourcePoint" />
          </mxGeometry>
        </mxCell>
        <mxCell id="FJ30JDf7qLVt8mmUW5T5-90" value="current = current-&amp;gt;next;" style="rounded=0;whiteSpace=wrap;html=1;" vertex="1" parent="1">
          <mxGeometry x="905.01" y="1750" width="179.97" height="30" as="geometry" />
        </mxCell>
        <mxCell id="FJ30JDf7qLVt8mmUW5T5-91" style="edgeStyle=orthogonalEdgeStyle;rounded=0;orthogonalLoop=1;jettySize=auto;html=1;exitX=0.5;exitY=1;exitDx=0;exitDy=0;" edge="1" parent="1">
          <mxGeometry relative="1" as="geometry">
            <mxPoint x="999.8571428571429" y="1800" as="targetPoint" />
            <mxPoint x="1000" y="1780" as="sourcePoint" />
          </mxGeometry>
        </mxCell>
        <mxCell id="FJ30JDf7qLVt8mmUW5T5-93" style="edgeStyle=orthogonalEdgeStyle;rounded=0;orthogonalLoop=1;jettySize=auto;html=1;exitX=0.5;exitY=1;exitDx=0;exitDy=0;entryX=0;entryY=0.5;entryDx=0;entryDy=0;" edge="1" parent="1" source="FJ30JDf7qLVt8mmUW5T5-92" target="FJ30JDf7qLVt8mmUW5T5-85">
          <mxGeometry relative="1" as="geometry">
            <Array as="points">
              <mxPoint x="995" y="1850" />
              <mxPoint x="860" y="1850" />
              <mxPoint x="860" y="1640" />
            </Array>
          </mxGeometry>
        </mxCell>
        <mxCell id="FJ30JDf7qLVt8mmUW5T5-92" value="delete temp;" style="rounded=0;whiteSpace=wrap;html=1;" vertex="1" parent="1">
          <mxGeometry x="905.01" y="1800" width="179.97" height="30" as="geometry" />
        </mxCell>
        <mxCell id="FJ30JDf7qLVt8mmUW5T5-95" style="edgeStyle=orthogonalEdgeStyle;rounded=0;orthogonalLoop=1;jettySize=auto;html=1;exitX=0.5;exitY=1;exitDx=0;exitDy=0;" edge="1" parent="1" source="FJ30JDf7qLVt8mmUW5T5-96">
          <mxGeometry relative="1" as="geometry">
            <mxPoint x="1048.97" y="82" as="targetPoint" />
          </mxGeometry>
        </mxCell>
        <mxCell id="FJ30JDf7qLVt8mmUW5T5-96" value="struct Student&amp;nbsp;" style="shape=process;whiteSpace=wrap;html=1;backgroundOutline=1;" vertex="1" parent="1">
          <mxGeometry x="988.97" y="32" width="120" height="30" as="geometry" />
        </mxCell>
        <mxCell id="FJ30JDf7qLVt8mmUW5T5-97" value="string fio;" style="rounded=0;whiteSpace=wrap;html=1;" vertex="1" parent="1">
          <mxGeometry x="983.97" y="82" width="130" height="30" as="geometry" />
        </mxCell>
        <mxCell id="FJ30JDf7qLVt8mmUW5T5-98" style="edgeStyle=orthogonalEdgeStyle;rounded=0;orthogonalLoop=1;jettySize=auto;html=1;exitX=0.5;exitY=1;exitDx=0;exitDy=0;" edge="1" parent="1">
          <mxGeometry relative="1" as="geometry">
            <mxPoint x="1048.97" y="132" as="targetPoint" />
            <mxPoint x="1048.97" y="112" as="sourcePoint" />
          </mxGeometry>
        </mxCell>
        <mxCell id="FJ30JDf7qLVt8mmUW5T5-99" value="string phone;" style="rounded=0;whiteSpace=wrap;html=1;" vertex="1" parent="1">
          <mxGeometry x="983.97" y="132" width="130" height="30" as="geometry" />
        </mxCell>
        <mxCell id="FJ30JDf7qLVt8mmUW5T5-100" style="edgeStyle=orthogonalEdgeStyle;rounded=0;orthogonalLoop=1;jettySize=auto;html=1;exitX=0.5;exitY=1;exitDx=0;exitDy=0;" edge="1" parent="1">
          <mxGeometry relative="1" as="geometry">
            <mxPoint x="1048.97" y="182" as="targetPoint" />
            <mxPoint x="1048.97" y="162" as="sourcePoint" />
          </mxGeometry>
        </mxCell>
        <mxCell id="FJ30JDf7qLVt8mmUW5T5-101" value="string passport;" style="rounded=0;whiteSpace=wrap;html=1;" vertex="1" parent="1">
          <mxGeometry x="983.97" y="182" width="130" height="30" as="geometry" />
        </mxCell>
        <mxCell id="FJ30JDf7qLVt8mmUW5T5-102" style="edgeStyle=orthogonalEdgeStyle;rounded=0;orthogonalLoop=1;jettySize=auto;html=1;exitX=0.5;exitY=1;exitDx=0;exitDy=0;" edge="1" parent="1">
          <mxGeometry relative="1" as="geometry">
            <mxPoint x="1048.97" y="232" as="targetPoint" />
            <mxPoint x="1048.97" y="212" as="sourcePoint" />
          </mxGeometry>
        </mxCell>
        <mxCell id="FJ30JDf7qLVt8mmUW5T5-103" value="string birthDate;" style="rounded=0;whiteSpace=wrap;html=1;" vertex="1" parent="1">
          <mxGeometry x="983.97" y="232" width="130" height="30" as="geometry" />
        </mxCell>
        <mxCell id="FJ30JDf7qLVt8mmUW5T5-106" value="{" style="text;html=1;align=center;verticalAlign=middle;resizable=0;points=[];autosize=1;strokeColor=none;fillColor=none;" vertex="1" parent="1">
          <mxGeometry x="943.97" y="60" width="30" height="30" as="geometry" />
        </mxCell>
        <mxCell id="FJ30JDf7qLVt8mmUW5T5-107" value="};" style="text;html=1;align=center;verticalAlign=middle;resizable=0;points=[];autosize=1;strokeColor=none;fillColor=none;" vertex="1" parent="1">
          <mxGeometry x="1104.47" y="262" width="30" height="30" as="geometry" />
        </mxCell>
        <mxCell id="FJ30JDf7qLVt8mmUW5T5-108" style="edgeStyle=orthogonalEdgeStyle;rounded=0;orthogonalLoop=1;jettySize=auto;html=1;exitX=0.5;exitY=1;exitDx=0;exitDy=0;" edge="1" parent="1" source="FJ30JDf7qLVt8mmUW5T5-109">
          <mxGeometry relative="1" as="geometry">
            <mxPoint x="1419.8571428571427" y="68" as="targetPoint" />
          </mxGeometry>
        </mxCell>
        <mxCell id="FJ30JDf7qLVt8mmUW5T5-109" value="int hashFunction(const string&amp;amp; key)&amp;nbsp;" style="shape=process;whiteSpace=wrap;html=1;backgroundOutline=1;" vertex="1" parent="1">
          <mxGeometry x="1280" y="18" width="280" height="30" as="geometry" />
        </mxCell>
        <mxCell id="FJ30JDf7qLVt8mmUW5T5-110" value="int dot1 = key.find(&#39;.&#39;);" style="rounded=0;whiteSpace=wrap;html=1;" vertex="1" parent="1">
          <mxGeometry x="1330" y="68" width="180" height="30" as="geometry" />
        </mxCell>
        <mxCell id="FJ30JDf7qLVt8mmUW5T5-111" style="edgeStyle=orthogonalEdgeStyle;rounded=0;orthogonalLoop=1;jettySize=auto;html=1;exitX=0.5;exitY=1;exitDx=0;exitDy=0;" edge="1" parent="1">
          <mxGeometry relative="1" as="geometry">
            <mxPoint x="1419.8571428571427" y="118" as="targetPoint" />
            <mxPoint x="1420" y="98" as="sourcePoint" />
          </mxGeometry>
        </mxCell>
        <mxCell id="FJ30JDf7qLVt8mmUW5T5-112" value="int dot2 = key.find(&#39;.&#39;, dot1 + 1);" style="rounded=0;whiteSpace=wrap;html=1;" vertex="1" parent="1">
          <mxGeometry x="1330" y="118" width="180" height="30" as="geometry" />
        </mxCell>
        <mxCell id="FJ30JDf7qLVt8mmUW5T5-113" style="edgeStyle=orthogonalEdgeStyle;rounded=0;orthogonalLoop=1;jettySize=auto;html=1;exitX=0.5;exitY=1;exitDx=0;exitDy=0;" edge="1" parent="1">
          <mxGeometry relative="1" as="geometry">
            <mxPoint x="1419.8571428571427" y="168" as="targetPoint" />
            <mxPoint x="1420" y="148" as="sourcePoint" />
          </mxGeometry>
        </mxCell>
        <mxCell id="FJ30JDf7qLVt8mmUW5T5-114" value="int day = stoi(key.substr(0, dot1));&amp;nbsp;" style="rounded=0;whiteSpace=wrap;html=1;" vertex="1" parent="1">
          <mxGeometry x="1330" y="168" width="180" height="30" as="geometry" />
        </mxCell>
        <mxCell id="FJ30JDf7qLVt8mmUW5T5-115" style="edgeStyle=orthogonalEdgeStyle;rounded=0;orthogonalLoop=1;jettySize=auto;html=1;exitX=0.5;exitY=1;exitDx=0;exitDy=0;" edge="1" parent="1">
          <mxGeometry relative="1" as="geometry">
            <mxPoint x="1419.8571428571427" y="218" as="targetPoint" />
            <mxPoint x="1420" y="198" as="sourcePoint" />
          </mxGeometry>
        </mxCell>
        <mxCell id="FJ30JDf7qLVt8mmUW5T5-116" value="int month = stoi(key.substr(dot1 + 1, dot2 - dot1 - 1));&amp;nbsp;" style="rounded=0;whiteSpace=wrap;html=1;" vertex="1" parent="1">
          <mxGeometry x="1330" y="218" width="180" height="30" as="geometry" />
        </mxCell>
        <mxCell id="FJ30JDf7qLVt8mmUW5T5-117" style="edgeStyle=orthogonalEdgeStyle;rounded=0;orthogonalLoop=1;jettySize=auto;html=1;exitX=0.5;exitY=1;exitDx=0;exitDy=0;" edge="1" parent="1">
          <mxGeometry relative="1" as="geometry">
            <mxPoint x="1419.8571428571427" y="268" as="targetPoint" />
            <mxPoint x="1420" y="248" as="sourcePoint" />
          </mxGeometry>
        </mxCell>
        <mxCell id="FJ30JDf7qLVt8mmUW5T5-118" value="int year = stoi(key.substr(dot2 + 1));&amp;nbsp;" style="rounded=0;whiteSpace=wrap;html=1;" vertex="1" parent="1">
          <mxGeometry x="1330" y="268" width="180" height="30" as="geometry" />
        </mxCell>
        <mxCell id="FJ30JDf7qLVt8mmUW5T5-119" style="edgeStyle=orthogonalEdgeStyle;rounded=0;orthogonalLoop=1;jettySize=auto;html=1;exitX=0.5;exitY=1;exitDx=0;exitDy=0;" edge="1" parent="1">
          <mxGeometry relative="1" as="geometry">
            <mxPoint x="1419.8571428571427" y="318" as="targetPoint" />
            <mxPoint x="1420" y="298" as="sourcePoint" />
          </mxGeometry>
        </mxCell>
        <mxCell id="FJ30JDf7qLVt8mmUW5T5-120" value="int k = day * 10000 + month * 100 + year;" style="rounded=0;whiteSpace=wrap;html=1;" vertex="1" parent="1">
          <mxGeometry x="1330" y="318" width="180" height="30" as="geometry" />
        </mxCell>
        <mxCell id="FJ30JDf7qLVt8mmUW5T5-121" style="edgeStyle=orthogonalEdgeStyle;rounded=0;orthogonalLoop=1;jettySize=auto;html=1;exitX=0.5;exitY=1;exitDx=0;exitDy=0;" edge="1" parent="1">
          <mxGeometry relative="1" as="geometry">
            <mxPoint x="1419.8571428571427" y="368" as="targetPoint" />
            <mxPoint x="1420" y="348" as="sourcePoint" />
          </mxGeometry>
        </mxCell>
        <mxCell id="FJ30JDf7qLVt8mmUW5T5-122" value="double fractional;" style="rounded=0;whiteSpace=wrap;html=1;" vertex="1" parent="1">
          <mxGeometry x="1330" y="368" width="180" height="30" as="geometry" />
        </mxCell>
        <mxCell id="FJ30JDf7qLVt8mmUW5T5-123" style="edgeStyle=orthogonalEdgeStyle;rounded=0;orthogonalLoop=1;jettySize=auto;html=1;exitX=0.5;exitY=1;exitDx=0;exitDy=0;" edge="1" parent="1">
          <mxGeometry relative="1" as="geometry">
            <mxPoint x="1419.8571428571427" y="418" as="targetPoint" />
            <mxPoint x="1420" y="398" as="sourcePoint" />
          </mxGeometry>
        </mxCell>
        <mxCell id="FJ30JDf7qLVt8mmUW5T5-124" style="edgeStyle=orthogonalEdgeStyle;rounded=0;orthogonalLoop=1;jettySize=auto;html=1;exitX=0.5;exitY=1;exitDx=0;exitDy=0;" edge="1" parent="1" source="FJ30JDf7qLVt8mmUW5T5-125">
          <mxGeometry relative="1" as="geometry">
            <mxPoint x="1419.8571428571427" y="468" as="targetPoint" />
          </mxGeometry>
        </mxCell>
        <mxCell id="FJ30JDf7qLVt8mmUW5T5-125" value="modf(k * A, &amp;amp;fractional);&amp;nbsp;" style="rounded=0;whiteSpace=wrap;html=1;" vertex="1" parent="1">
          <mxGeometry x="1330" y="418" width="180" height="30" as="geometry" />
        </mxCell>
        <mxCell id="FJ30JDf7qLVt8mmUW5T5-126" value="return static_cast&amp;lt;int&amp;gt;(SIZE * fractional) % SIZE;" style="ellipse;whiteSpace=wrap;html=1;" vertex="1" parent="1">
          <mxGeometry x="1260" y="468" width="290" height="40" as="geometry" />
        </mxCell>
        <mxCell id="FJ30JDf7qLVt8mmUW5T5-127" value="{" style="text;html=1;align=center;verticalAlign=middle;resizable=0;points=[];autosize=1;strokeColor=none;fillColor=none;" vertex="1" parent="1">
          <mxGeometry x="1275" y="56" width="30" height="30" as="geometry" />
        </mxCell>
        <mxCell id="FJ30JDf7qLVt8mmUW5T5-128" value="}" style="text;html=1;align=center;verticalAlign=middle;resizable=0;points=[];autosize=1;strokeColor=none;fillColor=none;" vertex="1" parent="1">
          <mxGeometry x="1445" y="506" width="30" height="30" as="geometry" />
        </mxCell>
        <mxCell id="FJ30JDf7qLVt8mmUW5T5-153" style="edgeStyle=orthogonalEdgeStyle;rounded=0;orthogonalLoop=1;jettySize=auto;html=1;exitX=0.5;exitY=1;exitDx=0;exitDy=0;" edge="1" parent="1" source="FJ30JDf7qLVt8mmUW5T5-154">
          <mxGeometry relative="1" as="geometry">
            <mxPoint x="1960.2857142857147" y="680" as="targetPoint" />
          </mxGeometry>
        </mxCell>
        <mxCell id="FJ30JDf7qLVt8mmUW5T5-154" value="void insert(Node* table[], const Student&amp; student, int&amp; collisions)" style="shape=process;whiteSpace=wrap;html=1;backgroundOutline=1;" vertex="1" parent="1">
          <mxGeometry x="1820" y="630" width="280" height="30" as="geometry" />
        </mxCell>
        <mxCell id="FJ30JDf7qLVt8mmUW5T5-155" style="edgeStyle=orthogonalEdgeStyle;rounded=0;orthogonalLoop=1;jettySize=auto;html=1;exitX=0.5;exitY=1;exitDx=0;exitDy=0;" edge="1" parent="1" source="FJ30JDf7qLVt8mmUW5T5-156">
          <mxGeometry relative="1" as="geometry">
            <mxPoint x="1960.2439024390246" y="730" as="targetPoint" />
          </mxGeometry>
        </mxCell>
        <mxCell id="FJ30JDf7qLVt8mmUW5T5-156" value="int index = hashFunction(student.birthDate);" style="rounded=0;whiteSpace=wrap;html=1;" vertex="1" parent="1">
          <mxGeometry x="1870" y="680" width="180" height="30" as="geometry" />
        </mxCell>
        <mxCell id="FJ30JDf7qLVt8mmUW5T5-176" value="{" style="text;html=1;align=center;verticalAlign=middle;resizable=0;points=[];autosize=1;strokeColor=none;fillColor=none;" vertex="1" parent="1">
          <mxGeometry x="1835" y="668" width="30" height="30" as="geometry" />
        </mxCell>
        <mxCell id="FJ30JDf7qLVt8mmUW5T5-177" style="edgeStyle=orthogonalEdgeStyle;rounded=0;orthogonalLoop=1;jettySize=auto;html=1;exitX=0.5;exitY=1;exitDx=0;exitDy=0;" edge="1" parent="1">
          <mxGeometry relative="1" as="geometry">
            <mxPoint x="1960.2857142857147" y="730" as="targetPoint" />
            <mxPoint x="1960" y="710" as="sourcePoint" />
          </mxGeometry>
        </mxCell>
        <mxCell id="FJ30JDf7qLVt8mmUW5T5-178" style="edgeStyle=orthogonalEdgeStyle;rounded=0;orthogonalLoop=1;jettySize=auto;html=1;exitX=0.5;exitY=1;exitDx=0;exitDy=0;" edge="1" parent="1" source="FJ30JDf7qLVt8mmUW5T5-179">
          <mxGeometry relative="1" as="geometry">
            <mxPoint x="1960.2439024390246" y="780" as="targetPoint" />
          </mxGeometry>
        </mxCell>
        <mxCell id="FJ30JDf7qLVt8mmUW5T5-179" value="Node* newNode = new Node;" style="rounded=0;whiteSpace=wrap;html=1;" vertex="1" parent="1">
          <mxGeometry x="1870" y="730" width="180" height="30" as="geometry" />
        </mxCell>
        <mxCell id="FJ30JDf7qLVt8mmUW5T5-180" style="edgeStyle=orthogonalEdgeStyle;rounded=0;orthogonalLoop=1;jettySize=auto;html=1;exitX=0.5;exitY=1;exitDx=0;exitDy=0;" edge="1" parent="1">
          <mxGeometry relative="1" as="geometry">
            <mxPoint x="1960.2857142857147" y="780" as="targetPoint" />
            <mxPoint x="1960" y="760" as="sourcePoint" />
          </mxGeometry>
        </mxCell>
        <mxCell id="FJ30JDf7qLVt8mmUW5T5-181" style="edgeStyle=orthogonalEdgeStyle;rounded=0;orthogonalLoop=1;jettySize=auto;html=1;exitX=0.5;exitY=1;exitDx=0;exitDy=0;" edge="1" parent="1" source="FJ30JDf7qLVt8mmUW5T5-182">
          <mxGeometry relative="1" as="geometry">
            <mxPoint x="1960.2439024390246" y="830" as="targetPoint" />
          </mxGeometry>
        </mxCell>
        <mxCell id="FJ30JDf7qLVt8mmUW5T5-182" value="newNode-&amp;gt;student = student;" style="rounded=0;whiteSpace=wrap;html=1;" vertex="1" parent="1">
          <mxGeometry x="1870" y="780" width="180" height="30" as="geometry" />
        </mxCell>
        <mxCell id="FJ30JDf7qLVt8mmUW5T5-183" style="edgeStyle=orthogonalEdgeStyle;rounded=0;orthogonalLoop=1;jettySize=auto;html=1;exitX=0.5;exitY=1;exitDx=0;exitDy=0;" edge="1" parent="1">
          <mxGeometry relative="1" as="geometry">
            <mxPoint x="1960.2439024390246" y="830" as="targetPoint" />
            <mxPoint x="1960" y="810" as="sourcePoint" />
          </mxGeometry>
        </mxCell>
        <mxCell id="FJ30JDf7qLVt8mmUW5T5-184" style="edgeStyle=orthogonalEdgeStyle;rounded=0;orthogonalLoop=1;jettySize=auto;html=1;exitX=0.5;exitY=1;exitDx=0;exitDy=0;" edge="1" parent="1">
          <mxGeometry relative="1" as="geometry">
            <mxPoint x="1960.2857142857147" y="830" as="targetPoint" />
            <mxPoint x="1960" y="810" as="sourcePoint" />
          </mxGeometry>
        </mxCell>
        <mxCell id="FJ30JDf7qLVt8mmUW5T5-186" value="newNode-&amp;gt;next = nullptr;" style="rounded=0;whiteSpace=wrap;html=1;" vertex="1" parent="1">
          <mxGeometry x="1870" y="830" width="180" height="30" as="geometry" />
        </mxCell>
        <mxCell id="FJ30JDf7qLVt8mmUW5T5-187" value="" style="edgeStyle=orthogonalEdgeStyle;rounded=0;orthogonalLoop=1;jettySize=auto;html=1;" edge="1" parent="1">
          <mxGeometry relative="1" as="geometry">
            <mxPoint x="1963.702857142857" y="860.0000000000001" as="sourcePoint" />
            <mxPoint x="1963.942857142857" y="880.0000000000001" as="targetPoint" />
          </mxGeometry>
        </mxCell>
        <mxCell id="FJ30JDf7qLVt8mmUW5T5-188" value="" style="edgeStyle=orthogonalEdgeStyle;rounded=0;orthogonalLoop=1;jettySize=auto;html=1;" edge="1" parent="1">
          <mxGeometry relative="1" as="geometry">
            <mxPoint x="1963.942857142857" y="860.0000000000001" as="sourcePoint" />
            <mxPoint x="1963.942857142857" y="880.0000000000001" as="targetPoint" />
          </mxGeometry>
        </mxCell>
        <mxCell id="FJ30JDf7qLVt8mmUW5T5-189" style="edgeStyle=orthogonalEdgeStyle;rounded=0;orthogonalLoop=1;jettySize=auto;html=1;exitX=0;exitY=0.5;exitDx=0;exitDy=0;" edge="1" source="FJ30JDf7qLVt8mmUW5T5-191" parent="1">
          <mxGeometry relative="1" as="geometry">
            <mxPoint x="1820" y="970.0000000000001" as="targetPoint" />
          </mxGeometry>
        </mxCell>
        <mxCell id="FJ30JDf7qLVt8mmUW5T5-190" style="edgeStyle=orthogonalEdgeStyle;rounded=0;orthogonalLoop=1;jettySize=auto;html=1;exitX=1;exitY=0.5;exitDx=0;exitDy=0;" edge="1" source="FJ30JDf7qLVt8mmUW5T5-191" parent="1">
          <mxGeometry relative="1" as="geometry">
            <mxPoint x="2120" y="970.0000000000001" as="targetPoint" />
          </mxGeometry>
        </mxCell>
        <mxCell id="FJ30JDf7qLVt8mmUW5T5-191" value="if (table[index] == nullptr)" style="rhombus;whiteSpace=wrap;html=1;" vertex="1" parent="1">
          <mxGeometry x="1900" y="880.0000000000001" width="130" height="80" as="geometry" />
        </mxCell>
        <mxCell id="FJ30JDf7qLVt8mmUW5T5-207" style="edgeStyle=orthogonalEdgeStyle;rounded=0;orthogonalLoop=1;jettySize=auto;html=1;exitX=0.5;exitY=1;exitDx=0;exitDy=0;" edge="1" parent="1" source="FJ30JDf7qLVt8mmUW5T5-193">
          <mxGeometry relative="1" as="geometry">
            <mxPoint x="2200.0000000000005" y="1260" as="targetPoint" />
            <Array as="points">
              <mxPoint x="1820" y="1260" />
            </Array>
          </mxGeometry>
        </mxCell>
        <mxCell id="FJ30JDf7qLVt8mmUW5T5-193" value="table[index] = newNode;" style="rounded=0;whiteSpace=wrap;html=1;" vertex="1" parent="1">
          <mxGeometry x="1760" y="970.0000000000001" width="120" height="30" as="geometry" />
        </mxCell>
        <mxCell id="FJ30JDf7qLVt8mmUW5T5-196" style="edgeStyle=orthogonalEdgeStyle;rounded=0;orthogonalLoop=1;jettySize=auto;html=1;exitX=0.5;exitY=1;exitDx=0;exitDy=0;" edge="1" parent="1" source="FJ30JDf7qLVt8mmUW5T5-195">
          <mxGeometry relative="1" as="geometry">
            <mxPoint x="2120.222222222222" y="1020" as="targetPoint" />
          </mxGeometry>
        </mxCell>
        <mxCell id="FJ30JDf7qLVt8mmUW5T5-195" value="Node* current = table[index];" style="rounded=0;whiteSpace=wrap;html=1;" vertex="1" parent="1">
          <mxGeometry x="2060" y="970.0000000000001" width="120" height="30" as="geometry" />
        </mxCell>
        <mxCell id="FJ30JDf7qLVt8mmUW5T5-200" style="edgeStyle=orthogonalEdgeStyle;rounded=0;orthogonalLoop=1;jettySize=auto;html=1;exitX=0.5;exitY=1;exitDx=0;exitDy=0;" edge="1" parent="1" source="FJ30JDf7qLVt8mmUW5T5-199">
          <mxGeometry relative="1" as="geometry">
            <mxPoint x="2120.222222222222" y="1120" as="targetPoint" />
          </mxGeometry>
        </mxCell>
        <mxCell id="FJ30JDf7qLVt8mmUW5T5-205" style="edgeStyle=orthogonalEdgeStyle;rounded=0;orthogonalLoop=1;jettySize=auto;html=1;exitX=1;exitY=0.5;exitDx=0;exitDy=0;" edge="1" parent="1" source="FJ30JDf7qLVt8mmUW5T5-199">
          <mxGeometry relative="1" as="geometry">
            <mxPoint x="2310.0000000000005" y="1110" as="targetPoint" />
          </mxGeometry>
        </mxCell>
        <mxCell id="FJ30JDf7qLVt8mmUW5T5-199" value="while (current-&amp;gt;next != nullptr)" style="rhombus;whiteSpace=wrap;html=1;" vertex="1" parent="1">
          <mxGeometry x="2030" y="1020" width="180" height="80" as="geometry" />
        </mxCell>
        <mxCell id="FJ30JDf7qLVt8mmUW5T5-201" value="current = current-&amp;gt;next;" style="rounded=0;whiteSpace=wrap;html=1;" vertex="1" parent="1">
          <mxGeometry x="2060" y="1120" width="120" height="30" as="geometry" />
        </mxCell>
        <mxCell id="FJ30JDf7qLVt8mmUW5T5-202" style="edgeStyle=orthogonalEdgeStyle;rounded=0;orthogonalLoop=1;jettySize=auto;html=1;exitX=0.5;exitY=1;exitDx=0;exitDy=0;" edge="1" parent="1">
          <mxGeometry relative="1" as="geometry">
            <mxPoint x="2120.222222222222" y="1170" as="targetPoint" />
            <mxPoint x="2120" y="1150" as="sourcePoint" />
          </mxGeometry>
        </mxCell>
        <mxCell id="FJ30JDf7qLVt8mmUW5T5-204" style="edgeStyle=orthogonalEdgeStyle;rounded=0;orthogonalLoop=1;jettySize=auto;html=1;exitX=0.5;exitY=1;exitDx=0;exitDy=0;entryX=0;entryY=0.5;entryDx=0;entryDy=0;" edge="1" parent="1" source="FJ30JDf7qLVt8mmUW5T5-203" target="FJ30JDf7qLVt8mmUW5T5-199">
          <mxGeometry relative="1" as="geometry" />
        </mxCell>
        <mxCell id="FJ30JDf7qLVt8mmUW5T5-203" value="&amp;nbsp;collisions++;" style="rounded=0;whiteSpace=wrap;html=1;" vertex="1" parent="1">
          <mxGeometry x="2060" y="1170" width="120" height="30" as="geometry" />
        </mxCell>
        <mxCell id="FJ30JDf7qLVt8mmUW5T5-208" style="edgeStyle=orthogonalEdgeStyle;rounded=0;orthogonalLoop=1;jettySize=auto;html=1;exitX=0.5;exitY=1;exitDx=0;exitDy=0;" edge="1" parent="1" source="FJ30JDf7qLVt8mmUW5T5-206">
          <mxGeometry relative="1" as="geometry">
            <mxPoint x="2200.0000000000005" y="1260" as="targetPoint" />
            <Array as="points">
              <mxPoint x="2310" y="1260" />
            </Array>
          </mxGeometry>
        </mxCell>
        <mxCell id="FJ30JDf7qLVt8mmUW5T5-206" value="current-&amp;gt;next = newNode;" style="rounded=0;whiteSpace=wrap;html=1;" vertex="1" parent="1">
          <mxGeometry x="2250" y="1110" width="120" height="30" as="geometry" />
        </mxCell>
        <mxCell id="FJ30JDf7qLVt8mmUW5T5-210" value="" style="endArrow=classic;html=1;rounded=0;" edge="1" parent="1">
          <mxGeometry width="50" height="50" relative="1" as="geometry">
            <mxPoint x="2200" y="1260" as="sourcePoint" />
            <mxPoint x="2200" y="1290" as="targetPoint" />
          </mxGeometry>
        </mxCell>
        <mxCell id="FJ30JDf7qLVt8mmUW5T5-211" value="return;" style="ellipse;whiteSpace=wrap;html=1;" vertex="1" parent="1">
          <mxGeometry x="2140" y="1290" width="120" height="40" as="geometry" />
        </mxCell>
        <mxCell id="FJ30JDf7qLVt8mmUW5T5-212" value="}" style="text;html=1;align=center;verticalAlign=middle;resizable=0;points=[];autosize=1;strokeColor=none;fillColor=none;" vertex="1" parent="1">
          <mxGeometry x="2255" y="1308" width="30" height="30" as="geometry" />
        </mxCell>
        <mxCell id="FJ30JDf7qLVt8mmUW5T5-213" value="1" style="text;html=1;align=center;verticalAlign=middle;resizable=0;points=[];autosize=1;strokeColor=none;fillColor=none;" vertex="1" parent="1">
          <mxGeometry x="1855" y="888" width="30" height="30" as="geometry" />
        </mxCell>
        <mxCell id="FJ30JDf7qLVt8mmUW5T5-214" value="0" style="text;html=1;align=center;verticalAlign=middle;resizable=0;points=[];autosize=1;strokeColor=none;fillColor=none;" vertex="1" parent="1">
          <mxGeometry x="2045" y="878" width="30" height="30" as="geometry" />
        </mxCell>
        <mxCell id="FJ30JDf7qLVt8mmUW5T5-215" style="edgeStyle=orthogonalEdgeStyle;rounded=0;orthogonalLoop=1;jettySize=auto;html=1;exitX=0.5;exitY=1;exitDx=0;exitDy=0;" edge="1" parent="1" source="FJ30JDf7qLVt8mmUW5T5-216">
          <mxGeometry relative="1" as="geometry">
            <mxPoint x="1915.2457142857147" y="1388" as="targetPoint" />
          </mxGeometry>
        </mxCell>
        <mxCell id="FJ30JDf7qLVt8mmUW5T5-216" value="Student* search(Node* table[], const string&amp;amp; birthDate)" style="shape=process;whiteSpace=wrap;html=1;backgroundOutline=1;" vertex="1" parent="1">
          <mxGeometry x="1774.96" y="1338" width="280" height="30" as="geometry" />
        </mxCell>
        <mxCell id="FJ30JDf7qLVt8mmUW5T5-217" style="edgeStyle=orthogonalEdgeStyle;rounded=0;orthogonalLoop=1;jettySize=auto;html=1;exitX=0.5;exitY=1;exitDx=0;exitDy=0;" edge="1" parent="1" source="FJ30JDf7qLVt8mmUW5T5-218">
          <mxGeometry relative="1" as="geometry">
            <mxPoint x="1915.2039024390247" y="1438" as="targetPoint" />
          </mxGeometry>
        </mxCell>
        <mxCell id="FJ30JDf7qLVt8mmUW5T5-218" value="int index = hashFunction(birthDate);" style="rounded=0;whiteSpace=wrap;html=1;" vertex="1" parent="1">
          <mxGeometry x="1824.96" y="1388" width="180" height="30" as="geometry" />
        </mxCell>
        <mxCell id="FJ30JDf7qLVt8mmUW5T5-219" style="edgeStyle=orthogonalEdgeStyle;rounded=0;orthogonalLoop=1;jettySize=auto;html=1;exitX=1;exitY=0.5;exitDx=0;exitDy=0;entryX=0.5;entryY=0;entryDx=0;entryDy=0;" edge="1" parent="1" source="FJ30JDf7qLVt8mmUW5T5-220">
          <mxGeometry relative="1" as="geometry">
            <mxPoint x="2184.96" y="1620.0400000000002" as="targetPoint" />
          </mxGeometry>
        </mxCell>
        <mxCell id="FJ30JDf7qLVt8mmUW5T5-220" value="while (current != nullptr)" style="rhombus;whiteSpace=wrap;html=1;" vertex="1" parent="1">
          <mxGeometry x="1809.96" y="1490.04" width="210" height="80" as="geometry" />
        </mxCell>
        <mxCell id="FJ30JDf7qLVt8mmUW5T5-221" value="{" style="text;html=1;align=center;verticalAlign=middle;resizable=0;points=[];autosize=1;strokeColor=none;fillColor=none;" vertex="1" parent="1">
          <mxGeometry x="1789.96" y="1376" width="30" height="30" as="geometry" />
        </mxCell>
        <mxCell id="FJ30JDf7qLVt8mmUW5T5-222" value="" style="edgeStyle=orthogonalEdgeStyle;rounded=0;orthogonalLoop=1;jettySize=auto;html=1;" edge="1" parent="1">
          <mxGeometry relative="1" as="geometry">
            <mxPoint x="1913.662857142857" y="1570.04" as="sourcePoint" />
            <mxPoint x="1913.902857142857" y="1590.04" as="targetPoint" />
          </mxGeometry>
        </mxCell>
        <mxCell id="FJ30JDf7qLVt8mmUW5T5-223" value="" style="edgeStyle=orthogonalEdgeStyle;rounded=0;orthogonalLoop=1;jettySize=auto;html=1;" edge="1" parent="1">
          <mxGeometry relative="1" as="geometry">
            <mxPoint x="1913.902857142857" y="1570.04" as="sourcePoint" />
            <mxPoint x="1913.902857142857" y="1590.04" as="targetPoint" />
          </mxGeometry>
        </mxCell>
        <mxCell id="FJ30JDf7qLVt8mmUW5T5-224" style="edgeStyle=orthogonalEdgeStyle;rounded=0;orthogonalLoop=1;jettySize=auto;html=1;exitX=0;exitY=0.5;exitDx=0;exitDy=0;" edge="1" parent="1" source="FJ30JDf7qLVt8mmUW5T5-225">
          <mxGeometry relative="1" as="geometry">
            <mxPoint x="1769.96" y="1680.04" as="targetPoint" />
          </mxGeometry>
        </mxCell>
        <mxCell id="FJ30JDf7qLVt8mmUW5T5-225" value="if (current-&amp;gt;student.birthDate&amp;nbsp;&lt;div&gt;== birthDate)&lt;br&gt;&lt;/div&gt;" style="rhombus;whiteSpace=wrap;html=1;" vertex="1" parent="1">
          <mxGeometry x="1799.96" y="1590.04" width="230" height="80" as="geometry" />
        </mxCell>
        <mxCell id="FJ30JDf7qLVt8mmUW5T5-226" style="edgeStyle=orthogonalEdgeStyle;rounded=0;orthogonalLoop=1;jettySize=auto;html=1;exitX=0.5;exitY=1;exitDx=0;exitDy=0;" edge="1" parent="1">
          <mxGeometry relative="1" as="geometry">
            <mxPoint x="1919.9599999999998" y="1730.04" as="targetPoint" />
            <Array as="points">
              <mxPoint x="1769.96" y="1730.04" />
            </Array>
            <mxPoint x="1769.96" y="1710.0400000000002" as="sourcePoint" />
          </mxGeometry>
        </mxCell>
        <mxCell id="FJ30JDf7qLVt8mmUW5T5-227" style="edgeStyle=orthogonalEdgeStyle;rounded=0;orthogonalLoop=1;jettySize=auto;html=1;exitX=1;exitY=0.5;exitDx=0;exitDy=0;" edge="1" parent="1" source="FJ30JDf7qLVt8mmUW5T5-225">
          <mxGeometry relative="1" as="geometry">
            <mxPoint x="1919.9599999999998" y="1730.04" as="targetPoint" />
            <Array as="points">
              <mxPoint x="2069.96" y="1630.04" />
              <mxPoint x="2069.96" y="1730.04" />
            </Array>
            <mxPoint x="2069.96" y="1710.0400000000002" as="sourcePoint" />
          </mxGeometry>
        </mxCell>
        <mxCell id="FJ30JDf7qLVt8mmUW5T5-228" value="return &amp;amp;(current-&amp;gt;student);" style="ellipse;whiteSpace=wrap;html=1;" vertex="1" parent="1">
          <mxGeometry x="1714.96" y="1680.04" width="120" height="40" as="geometry" />
        </mxCell>
        <mxCell id="FJ30JDf7qLVt8mmUW5T5-229" style="edgeStyle=orthogonalEdgeStyle;rounded=0;orthogonalLoop=1;jettySize=auto;html=1;exitX=0.5;exitY=1;exitDx=0;exitDy=0;" edge="1" parent="1">
          <mxGeometry relative="1" as="geometry">
            <mxPoint x="1925.2457142857147" y="1750.04" as="targetPoint" />
            <mxPoint x="1924.96" y="1730.04" as="sourcePoint" />
          </mxGeometry>
        </mxCell>
        <mxCell id="FJ30JDf7qLVt8mmUW5T5-230" style="edgeStyle=orthogonalEdgeStyle;rounded=0;orthogonalLoop=1;jettySize=auto;html=1;exitX=0.5;exitY=1;exitDx=0;exitDy=0;entryX=0;entryY=0.5;entryDx=0;entryDy=0;" edge="1" parent="1" source="FJ30JDf7qLVt8mmUW5T5-231" target="FJ30JDf7qLVt8mmUW5T5-220">
          <mxGeometry relative="1" as="geometry">
            <mxPoint x="1925.0979310344828" y="1800.04" as="targetPoint" />
            <Array as="points">
              <mxPoint x="1924.96" y="1800.04" />
              <mxPoint x="1699.96" y="1800.04" />
              <mxPoint x="1699.96" y="1530.04" />
            </Array>
          </mxGeometry>
        </mxCell>
        <mxCell id="FJ30JDf7qLVt8mmUW5T5-231" value="current = current-&amp;gt;next;" style="rounded=0;whiteSpace=wrap;html=1;" vertex="1" parent="1">
          <mxGeometry x="1834.96" y="1750.04" width="180" height="30" as="geometry" />
        </mxCell>
        <mxCell id="FJ30JDf7qLVt8mmUW5T5-232" value="return nullptr;" style="ellipse;whiteSpace=wrap;html=1;" vertex="1" parent="1">
          <mxGeometry x="2130" y="1620.04" width="120" height="40" as="geometry" />
        </mxCell>
        <mxCell id="FJ30JDf7qLVt8mmUW5T5-233" value="}" style="text;html=1;align=center;verticalAlign=middle;resizable=0;points=[];autosize=1;strokeColor=none;fillColor=none;" vertex="1" parent="1">
          <mxGeometry x="2220" y="1670" width="30" height="30" as="geometry" />
        </mxCell>
        <mxCell id="FJ30JDf7qLVt8mmUW5T5-234" style="edgeStyle=orthogonalEdgeStyle;rounded=0;orthogonalLoop=1;jettySize=auto;html=1;exitX=0.5;exitY=1;exitDx=0;exitDy=0;" edge="1" parent="1" source="FJ30JDf7qLVt8mmUW5T5-235">
          <mxGeometry relative="1" as="geometry">
            <mxPoint x="1915.2039024390247" y="1490" as="targetPoint" />
          </mxGeometry>
        </mxCell>
        <mxCell id="FJ30JDf7qLVt8mmUW5T5-235" value="Node* current = table[index];" style="rounded=0;whiteSpace=wrap;html=1;" vertex="1" parent="1">
          <mxGeometry x="1824.96" y="1440" width="180" height="30" as="geometry" />
        </mxCell>
        <mxCell id="FJ30JDf7qLVt8mmUW5T5-236" style="edgeStyle=orthogonalEdgeStyle;rounded=0;orthogonalLoop=1;jettySize=auto;html=1;exitX=0.5;exitY=1;exitDx=0;exitDy=0;" edge="1" parent="1" source="FJ30JDf7qLVt8mmUW5T5-237">
          <mxGeometry relative="1" as="geometry">
            <mxPoint x="2785.2857142857147" y="1520" as="targetPoint" />
          </mxGeometry>
        </mxCell>
        <mxCell id="FJ30JDf7qLVt8mmUW5T5-237" value="void remove(Node* table[], const string&amp;amp; birthDate)" style="shape=process;whiteSpace=wrap;html=1;backgroundOutline=1;" vertex="1" parent="1">
          <mxGeometry x="2645" y="1470" width="280" height="30" as="geometry" />
        </mxCell>
        <mxCell id="FJ30JDf7qLVt8mmUW5T5-238" style="edgeStyle=orthogonalEdgeStyle;rounded=0;orthogonalLoop=1;jettySize=auto;html=1;exitX=0.5;exitY=1;exitDx=0;exitDy=0;" edge="1" parent="1" source="FJ30JDf7qLVt8mmUW5T5-239">
          <mxGeometry relative="1" as="geometry">
            <mxPoint x="2785.2439024390246" y="1570" as="targetPoint" />
          </mxGeometry>
        </mxCell>
        <mxCell id="FJ30JDf7qLVt8mmUW5T5-239" value="int index = hashFunction(birthDate);" style="rounded=0;whiteSpace=wrap;html=1;" vertex="1" parent="1">
          <mxGeometry x="2695" y="1520" width="180" height="30" as="geometry" />
        </mxCell>
        <mxCell id="FJ30JDf7qLVt8mmUW5T5-240" style="edgeStyle=orthogonalEdgeStyle;rounded=0;orthogonalLoop=1;jettySize=auto;html=1;exitX=1;exitY=0.5;exitDx=0;exitDy=0;entryX=0.5;entryY=0;entryDx=0;entryDy=0;" edge="1" parent="1" source="FJ30JDf7qLVt8mmUW5T5-241">
          <mxGeometry relative="1" as="geometry">
            <mxPoint x="3055" y="1800.0400000000002" as="targetPoint" />
          </mxGeometry>
        </mxCell>
        <mxCell id="FJ30JDf7qLVt8mmUW5T5-241" value="&amp;nbsp;while (current != nullptr)" style="rhombus;whiteSpace=wrap;html=1;" vertex="1" parent="1">
          <mxGeometry x="2680" y="1670.04" width="210" height="80" as="geometry" />
        </mxCell>
        <mxCell id="FJ30JDf7qLVt8mmUW5T5-242" value="{" style="text;html=1;align=center;verticalAlign=middle;resizable=0;points=[];autosize=1;strokeColor=none;fillColor=none;" vertex="1" parent="1">
          <mxGeometry x="2660" y="1508" width="30" height="30" as="geometry" />
        </mxCell>
        <mxCell id="FJ30JDf7qLVt8mmUW5T5-243" value="" style="edgeStyle=orthogonalEdgeStyle;rounded=0;orthogonalLoop=1;jettySize=auto;html=1;" edge="1" parent="1">
          <mxGeometry relative="1" as="geometry">
            <mxPoint x="2783.7028571428573" y="1750.04" as="sourcePoint" />
            <mxPoint x="2783.942857142857" y="1770.04" as="targetPoint" />
          </mxGeometry>
        </mxCell>
        <mxCell id="FJ30JDf7qLVt8mmUW5T5-244" value="" style="edgeStyle=orthogonalEdgeStyle;rounded=0;orthogonalLoop=1;jettySize=auto;html=1;" edge="1" parent="1">
          <mxGeometry relative="1" as="geometry">
            <mxPoint x="2783.942857142857" y="1750.04" as="sourcePoint" />
            <mxPoint x="2783.942857142857" y="1770.04" as="targetPoint" />
          </mxGeometry>
        </mxCell>
        <mxCell id="FJ30JDf7qLVt8mmUW5T5-264" style="edgeStyle=orthogonalEdgeStyle;rounded=0;orthogonalLoop=1;jettySize=auto;html=1;exitX=0;exitY=0.5;exitDx=0;exitDy=0;" edge="1" parent="1" source="FJ30JDf7qLVt8mmUW5T5-246">
          <mxGeometry relative="1" as="geometry">
            <mxPoint x="2580" y="1860" as="targetPoint" />
          </mxGeometry>
        </mxCell>
        <mxCell id="FJ30JDf7qLVt8mmUW5T5-281" style="edgeStyle=orthogonalEdgeStyle;rounded=0;orthogonalLoop=1;jettySize=auto;html=1;exitX=1;exitY=0.5;exitDx=0;exitDy=0;" edge="1" parent="1" source="FJ30JDf7qLVt8mmUW5T5-246">
          <mxGeometry relative="1" as="geometry">
            <mxPoint x="2810.0000000000005" y="2120" as="targetPoint" />
            <Array as="points">
              <mxPoint x="2920" y="1810" />
              <mxPoint x="2920" y="2120" />
            </Array>
          </mxGeometry>
        </mxCell>
        <mxCell id="FJ30JDf7qLVt8mmUW5T5-246" value="&lt;div&gt;if (current-&amp;gt;student.birthDate&lt;/div&gt;&lt;div&gt;&amp;nbsp;== birthDate)&lt;br&gt;&lt;/div&gt;" style="rhombus;whiteSpace=wrap;html=1;" vertex="1" parent="1">
          <mxGeometry x="2670" y="1770.04" width="230" height="80" as="geometry" />
        </mxCell>
        <mxCell id="FJ30JDf7qLVt8mmUW5T5-253" value="return;" style="ellipse;whiteSpace=wrap;html=1;" vertex="1" parent="1">
          <mxGeometry x="2995" y="1800.04" width="120" height="40" as="geometry" />
        </mxCell>
        <mxCell id="FJ30JDf7qLVt8mmUW5T5-254" value="}" style="text;html=1;align=center;verticalAlign=middle;resizable=0;points=[];autosize=1;strokeColor=none;fillColor=none;" vertex="1" parent="1">
          <mxGeometry x="3065" y="1838.04" width="30" height="30" as="geometry" />
        </mxCell>
        <mxCell id="FJ30JDf7qLVt8mmUW5T5-256" value="1" style="text;html=1;align=center;verticalAlign=middle;resizable=0;points=[];autosize=1;strokeColor=none;fillColor=none;" vertex="1" parent="1">
          <mxGeometry x="2640" y="1770.04" width="30" height="30" as="geometry" />
        </mxCell>
        <mxCell id="FJ30JDf7qLVt8mmUW5T5-257" value="0" style="text;html=1;align=center;verticalAlign=middle;resizable=0;points=[];autosize=1;strokeColor=none;fillColor=none;" vertex="1" parent="1">
          <mxGeometry x="2895" y="1770.04" width="30" height="30" as="geometry" />
        </mxCell>
        <mxCell id="FJ30JDf7qLVt8mmUW5T5-258" style="edgeStyle=orthogonalEdgeStyle;rounded=0;orthogonalLoop=1;jettySize=auto;html=1;exitX=0.5;exitY=1;exitDx=0;exitDy=0;" edge="1" parent="1">
          <mxGeometry relative="1" as="geometry">
            <mxPoint x="2785.2857142857147" y="1570" as="targetPoint" />
            <mxPoint x="2785" y="1550" as="sourcePoint" />
          </mxGeometry>
        </mxCell>
        <mxCell id="FJ30JDf7qLVt8mmUW5T5-259" style="edgeStyle=orthogonalEdgeStyle;rounded=0;orthogonalLoop=1;jettySize=auto;html=1;exitX=0.5;exitY=1;exitDx=0;exitDy=0;" edge="1" parent="1" source="FJ30JDf7qLVt8mmUW5T5-260">
          <mxGeometry relative="1" as="geometry">
            <mxPoint x="2785.2439024390246" y="1620" as="targetPoint" />
          </mxGeometry>
        </mxCell>
        <mxCell id="FJ30JDf7qLVt8mmUW5T5-260" value="Node* current = table[index];" style="rounded=0;whiteSpace=wrap;html=1;" vertex="1" parent="1">
          <mxGeometry x="2695" y="1570" width="180" height="30" as="geometry" />
        </mxCell>
        <mxCell id="FJ30JDf7qLVt8mmUW5T5-261" style="edgeStyle=orthogonalEdgeStyle;rounded=0;orthogonalLoop=1;jettySize=auto;html=1;exitX=0.5;exitY=1;exitDx=0;exitDy=0;" edge="1" parent="1">
          <mxGeometry relative="1" as="geometry">
            <mxPoint x="2785.2857142857147" y="1620.04" as="targetPoint" />
            <mxPoint x="2785" y="1600.04" as="sourcePoint" />
          </mxGeometry>
        </mxCell>
        <mxCell id="FJ30JDf7qLVt8mmUW5T5-262" style="edgeStyle=orthogonalEdgeStyle;rounded=0;orthogonalLoop=1;jettySize=auto;html=1;exitX=0.5;exitY=1;exitDx=0;exitDy=0;" edge="1" parent="1" source="FJ30JDf7qLVt8mmUW5T5-263">
          <mxGeometry relative="1" as="geometry">
            <mxPoint x="2785.2439024390246" y="1670.04" as="targetPoint" />
          </mxGeometry>
        </mxCell>
        <mxCell id="FJ30JDf7qLVt8mmUW5T5-263" value="Node* prev = nullptr;" style="rounded=0;whiteSpace=wrap;html=1;" vertex="1" parent="1">
          <mxGeometry x="2695" y="1620.04" width="180" height="30" as="geometry" />
        </mxCell>
        <mxCell id="FJ30JDf7qLVt8mmUW5T5-267" style="edgeStyle=orthogonalEdgeStyle;rounded=0;orthogonalLoop=1;jettySize=auto;html=1;exitX=0;exitY=0.5;exitDx=0;exitDy=0;" edge="1" source="FJ30JDf7qLVt8mmUW5T5-269" parent="1">
          <mxGeometry relative="1" as="geometry">
            <mxPoint x="2440" y="1950" as="targetPoint" />
          </mxGeometry>
        </mxCell>
        <mxCell id="FJ30JDf7qLVt8mmUW5T5-268" style="edgeStyle=orthogonalEdgeStyle;rounded=0;orthogonalLoop=1;jettySize=auto;html=1;exitX=1;exitY=0.5;exitDx=0;exitDy=0;" edge="1" source="FJ30JDf7qLVt8mmUW5T5-269" parent="1">
          <mxGeometry relative="1" as="geometry">
            <mxPoint x="2740" y="1950" as="targetPoint" />
          </mxGeometry>
        </mxCell>
        <mxCell id="FJ30JDf7qLVt8mmUW5T5-269" value="if (prev == nullptr)" style="rhombus;whiteSpace=wrap;html=1;" vertex="1" parent="1">
          <mxGeometry x="2520" y="1860" width="130" height="80" as="geometry" />
        </mxCell>
        <mxCell id="FJ30JDf7qLVt8mmUW5T5-270" style="edgeStyle=orthogonalEdgeStyle;rounded=0;orthogonalLoop=1;jettySize=auto;html=1;exitX=0.5;exitY=1;exitDx=0;exitDy=0;" edge="1" source="FJ30JDf7qLVt8mmUW5T5-271" parent="1">
          <mxGeometry relative="1" as="geometry">
            <mxPoint x="2590" y="2000" as="targetPoint" />
            <Array as="points">
              <mxPoint x="2440" y="2000" />
            </Array>
          </mxGeometry>
        </mxCell>
        <mxCell id="FJ30JDf7qLVt8mmUW5T5-271" value="table[index] = current-&amp;gt;next;" style="rounded=0;whiteSpace=wrap;html=1;" vertex="1" parent="1">
          <mxGeometry x="2380" y="1950" width="120" height="30" as="geometry" />
        </mxCell>
        <mxCell id="FJ30JDf7qLVt8mmUW5T5-272" style="edgeStyle=orthogonalEdgeStyle;rounded=0;orthogonalLoop=1;jettySize=auto;html=1;exitX=0.5;exitY=1;exitDx=0;exitDy=0;" edge="1" source="FJ30JDf7qLVt8mmUW5T5-273" parent="1">
          <mxGeometry relative="1" as="geometry">
            <mxPoint x="2590" y="2000" as="targetPoint" />
            <Array as="points">
              <mxPoint x="2740" y="2000" />
            </Array>
          </mxGeometry>
        </mxCell>
        <mxCell id="FJ30JDf7qLVt8mmUW5T5-273" value="prev-&amp;gt;next = current-&amp;gt;next;" style="rounded=0;whiteSpace=wrap;html=1;" vertex="1" parent="1">
          <mxGeometry x="2680" y="1950" width="120" height="30" as="geometry" />
        </mxCell>
        <mxCell id="FJ30JDf7qLVt8mmUW5T5-279" style="edgeStyle=orthogonalEdgeStyle;rounded=0;orthogonalLoop=1;jettySize=auto;html=1;exitX=0.5;exitY=1;exitDx=0;exitDy=0;" edge="1" parent="1" source="FJ30JDf7qLVt8mmUW5T5-277">
          <mxGeometry relative="1" as="geometry">
            <mxPoint x="2590.3103448275865" y="2070" as="targetPoint" />
          </mxGeometry>
        </mxCell>
        <mxCell id="FJ30JDf7qLVt8mmUW5T5-277" value="delete current;" style="rounded=0;whiteSpace=wrap;html=1;" vertex="1" parent="1">
          <mxGeometry x="2530" y="2020" width="120" height="30" as="geometry" />
        </mxCell>
        <mxCell id="FJ30JDf7qLVt8mmUW5T5-278" value="" style="endArrow=classic;html=1;rounded=0;" edge="1" parent="1">
          <mxGeometry width="50" height="50" relative="1" as="geometry">
            <mxPoint x="2590" y="2000" as="sourcePoint" />
            <mxPoint x="2590" y="2020" as="targetPoint" />
          </mxGeometry>
        </mxCell>
        <mxCell id="FJ30JDf7qLVt8mmUW5T5-282" style="edgeStyle=orthogonalEdgeStyle;rounded=0;orthogonalLoop=1;jettySize=auto;html=1;exitX=0.5;exitY=1;exitDx=0;exitDy=0;" edge="1" parent="1" source="FJ30JDf7qLVt8mmUW5T5-280">
          <mxGeometry relative="1" as="geometry">
            <mxPoint x="2810.0000000000005" y="2120" as="targetPoint" />
            <Array as="points">
              <mxPoint x="2590" y="2120" />
            </Array>
          </mxGeometry>
        </mxCell>
        <mxCell id="FJ30JDf7qLVt8mmUW5T5-280" value="return;" style="ellipse;whiteSpace=wrap;html=1;" vertex="1" parent="1">
          <mxGeometry x="2530" y="2070" width="120" height="30" as="geometry" />
        </mxCell>
        <mxCell id="FJ30JDf7qLVt8mmUW5T5-283" value="" style="endArrow=classic;html=1;rounded=0;" edge="1" parent="1">
          <mxGeometry width="50" height="50" relative="1" as="geometry">
            <mxPoint x="2810" y="2120" as="sourcePoint" />
            <mxPoint x="2810" y="2150" as="targetPoint" />
          </mxGeometry>
        </mxCell>
        <mxCell id="FJ30JDf7qLVt8mmUW5T5-284" value="prev = current;" style="rounded=0;whiteSpace=wrap;html=1;" vertex="1" parent="1">
          <mxGeometry x="2755" y="2150" width="120" height="30" as="geometry" />
        </mxCell>
        <mxCell id="FJ30JDf7qLVt8mmUW5T5-285" value="" style="endArrow=classic;html=1;rounded=0;" edge="1" parent="1">
          <mxGeometry width="50" height="50" relative="1" as="geometry">
            <mxPoint x="2810" y="2180" as="sourcePoint" />
            <mxPoint x="2810" y="2210" as="targetPoint" />
          </mxGeometry>
        </mxCell>
        <mxCell id="FJ30JDf7qLVt8mmUW5T5-287" style="edgeStyle=orthogonalEdgeStyle;rounded=0;orthogonalLoop=1;jettySize=auto;html=1;exitX=0.5;exitY=1;exitDx=0;exitDy=0;entryX=0;entryY=0.5;entryDx=0;entryDy=0;" edge="1" parent="1" source="FJ30JDf7qLVt8mmUW5T5-286" target="FJ30JDf7qLVt8mmUW5T5-241">
          <mxGeometry relative="1" as="geometry">
            <mxPoint x="2815.137931034483" y="2260" as="targetPoint" />
            <Array as="points">
              <mxPoint x="2815" y="2260" />
              <mxPoint x="2360" y="2260" />
              <mxPoint x="2360" y="1710" />
            </Array>
          </mxGeometry>
        </mxCell>
        <mxCell id="FJ30JDf7qLVt8mmUW5T5-286" value="current = current-&amp;gt;next;" style="rounded=0;whiteSpace=wrap;html=1;" vertex="1" parent="1">
          <mxGeometry x="2755" y="2210" width="120" height="30" as="geometry" />
        </mxCell>
        <mxCell id="FJ30JDf7qLVt8mmUW5T5-289" value="1" style="text;html=1;align=center;verticalAlign=middle;resizable=0;points=[];autosize=1;strokeColor=none;fillColor=none;" vertex="1" parent="1">
          <mxGeometry x="2485" y="1868" width="30" height="30" as="geometry" />
        </mxCell>
        <mxCell id="FJ30JDf7qLVt8mmUW5T5-290" value="0" style="text;html=1;align=center;verticalAlign=middle;resizable=0;points=[];autosize=1;strokeColor=none;fillColor=none;" vertex="1" parent="1">
          <mxGeometry x="2665" y="1868" width="30" height="30" as="geometry" />
        </mxCell>
        <mxCell id="FJ30JDf7qLVt8mmUW5T5-291" value="{" style="text;html=1;align=center;verticalAlign=middle;resizable=0;points=[];autosize=1;strokeColor=none;fillColor=none;" vertex="1" parent="1">
          <mxGeometry x="2545" y="1798" width="30" height="30" as="geometry" />
        </mxCell>
        <mxCell id="FJ30JDf7qLVt8mmUW5T5-295" value="}" style="text;html=1;align=center;verticalAlign=middle;resizable=0;points=[];autosize=1;strokeColor=none;fillColor=none;" vertex="1" parent="1">
          <mxGeometry x="2875" y="2228" width="30" height="30" as="geometry" />
        </mxCell>
        <mxCell id="FJ30JDf7qLVt8mmUW5T5-296" style="edgeStyle=orthogonalEdgeStyle;rounded=0;orthogonalLoop=1;jettySize=auto;html=1;exitX=0.5;exitY=1;exitDx=0;exitDy=0;" edge="1" parent="1" source="FJ30JDf7qLVt8mmUW5T5-297">
          <mxGeometry relative="1" as="geometry">
            <mxPoint x="2530.222222222222" y="100" as="targetPoint" />
          </mxGeometry>
        </mxCell>
        <mxCell id="FJ30JDf7qLVt8mmUW5T5-297" value="void saveToFile(Node* table[])" style="shape=process;whiteSpace=wrap;html=1;backgroundOutline=1;" vertex="1" parent="1">
          <mxGeometry x="2390" y="50" width="280" height="30" as="geometry" />
        </mxCell>
        <mxCell id="FJ30JDf7qLVt8mmUW5T5-298" value="FILE* file = fopen(&quot;Students.txt&quot;, &quot;w&quot;);" style="rounded=0;whiteSpace=wrap;html=1;" vertex="1" parent="1">
          <mxGeometry x="2440" y="100" width="180" height="30" as="geometry" />
        </mxCell>
        <mxCell id="FJ30JDf7qLVt8mmUW5T5-299" value="" style="edgeStyle=orthogonalEdgeStyle;rounded=0;orthogonalLoop=1;jettySize=auto;html=1;" edge="1" parent="1">
          <mxGeometry relative="1" as="geometry">
            <mxPoint x="2523.9714285714285" y="130" as="sourcePoint" />
            <mxPoint x="2523.9714285714285" y="150" as="targetPoint" />
          </mxGeometry>
        </mxCell>
        <mxCell id="FJ30JDf7qLVt8mmUW5T5-331" style="edgeStyle=orthogonalEdgeStyle;rounded=0;orthogonalLoop=1;jettySize=auto;html=1;exitX=1;exitY=0.5;exitDx=0;exitDy=0;" edge="1" parent="1" source="FJ30JDf7qLVt8mmUW5T5-301">
          <mxGeometry relative="1" as="geometry">
            <mxPoint x="2790" y="220" as="targetPoint" />
          </mxGeometry>
        </mxCell>
        <mxCell id="FJ30JDf7qLVt8mmUW5T5-301" value="" style="verticalLabelPosition=bottom;verticalAlign=top;html=1;shape=hexagon;perimeter=hexagonPerimeter2;arcSize=6;size=0.11951219512195121;" vertex="1" parent="1">
          <mxGeometry x="2419.4714285714285" y="150" width="205" height="50" as="geometry" />
        </mxCell>
        <mxCell id="FJ30JDf7qLVt8mmUW5T5-302" value="for (int i = 0; i &amp;lt; SIZE; i++)&amp;nbsp;" style="text;html=1;align=center;verticalAlign=middle;whiteSpace=wrap;rounded=0;" vertex="1" parent="1">
          <mxGeometry x="2463.9714285714285" y="160" width="120" height="30" as="geometry" />
        </mxCell>
        <mxCell id="FJ30JDf7qLVt8mmUW5T5-303" value="" style="edgeStyle=orthogonalEdgeStyle;rounded=0;orthogonalLoop=1;jettySize=auto;html=1;" edge="1" parent="1">
          <mxGeometry relative="1" as="geometry">
            <mxPoint x="2527.7028571428573" y="200" as="sourcePoint" />
            <mxPoint x="2527.942857142857" y="220" as="targetPoint" />
          </mxGeometry>
        </mxCell>
        <mxCell id="FJ30JDf7qLVt8mmUW5T5-304" value="" style="edgeStyle=orthogonalEdgeStyle;rounded=0;orthogonalLoop=1;jettySize=auto;html=1;" edge="1" parent="1">
          <mxGeometry relative="1" as="geometry">
            <mxPoint x="2527.942857142857" y="200" as="sourcePoint" />
            <mxPoint x="2527.942857142857" y="220" as="targetPoint" />
          </mxGeometry>
        </mxCell>
        <mxCell id="FJ30JDf7qLVt8mmUW5T5-319" value="{" style="text;html=1;align=center;verticalAlign=middle;resizable=0;points=[];autosize=1;strokeColor=none;fillColor=none;" vertex="1" parent="1">
          <mxGeometry x="2405" y="78" width="30" height="30" as="geometry" />
        </mxCell>
        <mxCell id="FJ30JDf7qLVt8mmUW5T5-323" style="edgeStyle=orthogonalEdgeStyle;rounded=0;orthogonalLoop=1;jettySize=auto;html=1;exitX=0.5;exitY=1;exitDx=0;exitDy=0;" edge="1" parent="1" source="FJ30JDf7qLVt8mmUW5T5-322">
          <mxGeometry relative="1" as="geometry">
            <mxPoint x="2530.222222222222" y="270" as="targetPoint" />
          </mxGeometry>
        </mxCell>
        <mxCell id="FJ30JDf7qLVt8mmUW5T5-322" value="Node* current = table[i];" style="rounded=0;whiteSpace=wrap;html=1;" vertex="1" parent="1">
          <mxGeometry x="2438.97" y="218" width="180" height="30" as="geometry" />
        </mxCell>
        <mxCell id="FJ30JDf7qLVt8mmUW5T5-325" style="edgeStyle=orthogonalEdgeStyle;rounded=0;orthogonalLoop=1;jettySize=auto;html=1;exitX=0.5;exitY=1;exitDx=0;exitDy=0;" edge="1" parent="1" source="FJ30JDf7qLVt8mmUW5T5-324">
          <mxGeometry relative="1" as="geometry">
            <mxPoint x="2529.111111111111" y="370" as="targetPoint" />
          </mxGeometry>
        </mxCell>
        <mxCell id="FJ30JDf7qLVt8mmUW5T5-330" style="edgeStyle=orthogonalEdgeStyle;rounded=0;orthogonalLoop=1;jettySize=auto;html=1;exitX=1;exitY=0.5;exitDx=0;exitDy=0;entryX=0;entryY=0.5;entryDx=0;entryDy=0;" edge="1" parent="1" source="FJ30JDf7qLVt8mmUW5T5-324" target="FJ30JDf7qLVt8mmUW5T5-301">
          <mxGeometry relative="1" as="geometry">
            <Array as="points">
              <mxPoint x="2670" y="310" />
              <mxPoint x="2670" y="520" />
              <mxPoint x="2340" y="520" />
              <mxPoint x="2340" y="175" />
            </Array>
          </mxGeometry>
        </mxCell>
        <mxCell id="FJ30JDf7qLVt8mmUW5T5-324" value="while (current != nullptr)" style="rhombus;whiteSpace=wrap;html=1;" vertex="1" parent="1">
          <mxGeometry x="2463.97" y="270" width="130" height="80" as="geometry" />
        </mxCell>
        <mxCell id="FJ30JDf7qLVt8mmUW5T5-327" style="edgeStyle=orthogonalEdgeStyle;rounded=0;orthogonalLoop=1;jettySize=auto;html=1;exitX=0.5;exitY=1;exitDx=0;exitDy=0;" edge="1" parent="1" source="FJ30JDf7qLVt8mmUW5T5-326">
          <mxGeometry relative="1" as="geometry">
            <mxPoint x="2520.222222222222" y="430" as="targetPoint" />
          </mxGeometry>
        </mxCell>
        <mxCell id="FJ30JDf7qLVt8mmUW5T5-326" value="&lt;font style=&quot;font-size: 7px;&quot;&gt;printf(file, &quot;%s %s %s %s\n&quot;, current-&amp;gt;student.fio.c_str(), current-&amp;gt;student.phone.c_str(), current-&amp;gt;student.passport.c_str(), current-&amp;gt;student.birthDate.c_str());&lt;/font&gt;" style="rounded=0;whiteSpace=wrap;html=1;" vertex="1" parent="1">
          <mxGeometry x="2390" y="370" width="260" height="40" as="geometry" />
        </mxCell>
        <mxCell id="FJ30JDf7qLVt8mmUW5T5-329" style="edgeStyle=orthogonalEdgeStyle;rounded=0;orthogonalLoop=1;jettySize=auto;html=1;exitX=0.5;exitY=1;exitDx=0;exitDy=0;entryX=0;entryY=0.5;entryDx=0;entryDy=0;" edge="1" parent="1" source="FJ30JDf7qLVt8mmUW5T5-328" target="FJ30JDf7qLVt8mmUW5T5-324">
          <mxGeometry relative="1" as="geometry">
            <Array as="points">
              <mxPoint x="2525" y="480" />
              <mxPoint x="2360" y="480" />
              <mxPoint x="2360" y="310" />
            </Array>
          </mxGeometry>
        </mxCell>
        <mxCell id="FJ30JDf7qLVt8mmUW5T5-328" value="current = current-&amp;gt;next;" style="rounded=0;whiteSpace=wrap;html=1;" vertex="1" parent="1">
          <mxGeometry x="2435" y="430" width="180" height="30" as="geometry" />
        </mxCell>
        <mxCell id="FJ30JDf7qLVt8mmUW5T5-333" style="edgeStyle=orthogonalEdgeStyle;rounded=0;orthogonalLoop=1;jettySize=auto;html=1;exitX=0.5;exitY=1;exitDx=0;exitDy=0;" edge="1" parent="1" source="FJ30JDf7qLVt8mmUW5T5-332">
          <mxGeometry relative="1" as="geometry">
            <mxPoint x="2789.8" y="260" as="targetPoint" />
          </mxGeometry>
        </mxCell>
        <mxCell id="FJ30JDf7qLVt8mmUW5T5-332" value="fclose(file);" style="rounded=0;whiteSpace=wrap;html=1;" vertex="1" parent="1">
          <mxGeometry x="2700" y="220" width="180" height="20" as="geometry" />
        </mxCell>
        <mxCell id="FJ30JDf7qLVt8mmUW5T5-335" style="edgeStyle=orthogonalEdgeStyle;rounded=0;orthogonalLoop=1;jettySize=auto;html=1;exitX=0.5;exitY=1;exitDx=0;exitDy=0;" edge="1" parent="1" source="FJ30JDf7qLVt8mmUW5T5-334">
          <mxGeometry relative="1" as="geometry">
            <mxPoint x="2800.2" y="310" as="targetPoint" />
          </mxGeometry>
        </mxCell>
        <mxCell id="FJ30JDf7qLVt8mmUW5T5-334" value="cout &amp;lt;&amp;lt; &quot;Данные сохранены&amp;nbsp;&lt;div&gt;в файл.&quot; &amp;lt;&amp;lt; endl;&lt;/div&gt;" style="shape=parallelogram;perimeter=parallelogramPerimeter;whiteSpace=wrap;html=1;fixedSize=1;" vertex="1" parent="1">
          <mxGeometry x="2680" y="258" width="240" height="38" as="geometry" />
        </mxCell>
        <mxCell id="FJ30JDf7qLVt8mmUW5T5-336" value="return;" style="ellipse;whiteSpace=wrap;html=1;" vertex="1" parent="1">
          <mxGeometry x="2740" y="310" width="120" height="50" as="geometry" />
        </mxCell>
        <mxCell id="FJ30JDf7qLVt8mmUW5T5-337" value="}" style="text;html=1;align=center;verticalAlign=middle;resizable=0;points=[];autosize=1;strokeColor=none;fillColor=none;" vertex="1" parent="1">
          <mxGeometry x="2865" y="338" width="30" height="30" as="geometry" />
        </mxCell>
        <mxCell id="FJ30JDf7qLVt8mmUW5T5-338" style="edgeStyle=orthogonalEdgeStyle;rounded=0;orthogonalLoop=1;jettySize=auto;html=1;exitX=0.5;exitY=1;exitDx=0;exitDy=0;" edge="1" parent="1" source="FJ30JDf7qLVt8mmUW5T5-339">
          <mxGeometry relative="1" as="geometry">
            <mxPoint x="3310.222222222222" y="100" as="targetPoint" />
          </mxGeometry>
        </mxCell>
        <mxCell id="FJ30JDf7qLVt8mmUW5T5-339" value="void loadFromFile(Node* table[], int&amp;amp; collisions)" style="shape=process;whiteSpace=wrap;html=1;backgroundOutline=1;" vertex="1" parent="1">
          <mxGeometry x="3170" y="50" width="280" height="30" as="geometry" />
        </mxCell>
        <mxCell id="FJ30JDf7qLVt8mmUW5T5-340" value="&amp;nbsp;FILE* file = fopen(&quot;Students.txt&quot;, &quot;r&quot;);" style="rounded=0;whiteSpace=wrap;html=1;" vertex="1" parent="1">
          <mxGeometry x="3220" y="100" width="180" height="30" as="geometry" />
        </mxCell>
        <mxCell id="FJ30JDf7qLVt8mmUW5T5-341" value="" style="edgeStyle=orthogonalEdgeStyle;rounded=0;orthogonalLoop=1;jettySize=auto;html=1;" edge="1" parent="1">
          <mxGeometry relative="1" as="geometry">
            <mxPoint x="3303.9714285714285" y="130" as="sourcePoint" />
            <mxPoint x="3303.9714285714285" y="150" as="targetPoint" />
          </mxGeometry>
        </mxCell>
        <mxCell id="FJ30JDf7qLVt8mmUW5T5-342" value="{" style="text;html=1;align=center;verticalAlign=middle;resizable=0;points=[];autosize=1;strokeColor=none;fillColor=none;" vertex="1" parent="1">
          <mxGeometry x="3185" y="78" width="30" height="30" as="geometry" />
        </mxCell>
        <mxCell id="FJ30JDf7qLVt8mmUW5T5-343" style="edgeStyle=orthogonalEdgeStyle;rounded=0;orthogonalLoop=1;jettySize=auto;html=1;exitX=1;exitY=0.5;exitDx=0;exitDy=0;" edge="1" parent="1" source="FJ30JDf7qLVt8mmUW5T5-344">
          <mxGeometry relative="1" as="geometry">
            <mxPoint x="3720" y="230" as="targetPoint" />
          </mxGeometry>
        </mxCell>
        <mxCell id="FJ30JDf7qLVt8mmUW5T5-344" value="" style="verticalLabelPosition=bottom;verticalAlign=top;html=1;shape=hexagon;perimeter=hexagonPerimeter2;arcSize=6;size=0.11951219512195121;" vertex="1" parent="1">
          <mxGeometry x="3209.421428571429" y="150" width="205" height="50" as="geometry" />
        </mxCell>
        <mxCell id="FJ30JDf7qLVt8mmUW5T5-345" value="for (int i = 0; i &amp;lt; SIZE; i++)&amp;nbsp;" style="text;html=1;align=center;verticalAlign=middle;whiteSpace=wrap;rounded=0;" vertex="1" parent="1">
          <mxGeometry x="3253.921428571429" y="160" width="120" height="30" as="geometry" />
        </mxCell>
        <mxCell id="FJ30JDf7qLVt8mmUW5T5-346" value="" style="edgeStyle=orthogonalEdgeStyle;rounded=0;orthogonalLoop=1;jettySize=auto;html=1;" edge="1" parent="1">
          <mxGeometry relative="1" as="geometry">
            <mxPoint x="3317.652857142857" y="200" as="sourcePoint" />
            <mxPoint x="3317.892857142857" y="220" as="targetPoint" />
          </mxGeometry>
        </mxCell>
        <mxCell id="FJ30JDf7qLVt8mmUW5T5-347" value="" style="edgeStyle=orthogonalEdgeStyle;rounded=0;orthogonalLoop=1;jettySize=auto;html=1;" edge="1" parent="1">
          <mxGeometry relative="1" as="geometry">
            <mxPoint x="3317.892857142857" y="200" as="sourcePoint" />
            <mxPoint x="3317.892857142857" y="220" as="targetPoint" />
          </mxGeometry>
        </mxCell>
        <mxCell id="FJ30JDf7qLVt8mmUW5T5-348" style="edgeStyle=orthogonalEdgeStyle;rounded=0;orthogonalLoop=1;jettySize=auto;html=1;exitX=0.5;exitY=1;exitDx=0;exitDy=0;" edge="1" parent="1" source="FJ30JDf7qLVt8mmUW5T5-349">
          <mxGeometry relative="1" as="geometry">
            <mxPoint x="3320.1722222222224" y="270" as="targetPoint" />
          </mxGeometry>
        </mxCell>
        <mxCell id="FJ30JDf7qLVt8mmUW5T5-349" value="Node* current = table[i];" style="rounded=0;whiteSpace=wrap;html=1;" vertex="1" parent="1">
          <mxGeometry x="3228.92" y="218" width="180" height="30" as="geometry" />
        </mxCell>
        <mxCell id="FJ30JDf7qLVt8mmUW5T5-350" style="edgeStyle=orthogonalEdgeStyle;rounded=0;orthogonalLoop=1;jettySize=auto;html=1;exitX=0.5;exitY=1;exitDx=0;exitDy=0;" edge="1" parent="1" source="FJ30JDf7qLVt8mmUW5T5-352">
          <mxGeometry relative="1" as="geometry">
            <mxPoint x="3319.061111111111" y="370" as="targetPoint" />
          </mxGeometry>
        </mxCell>
        <mxCell id="FJ30JDf7qLVt8mmUW5T5-351" style="edgeStyle=orthogonalEdgeStyle;rounded=0;orthogonalLoop=1;jettySize=auto;html=1;exitX=1;exitY=0.5;exitDx=0;exitDy=0;entryX=0;entryY=0.5;entryDx=0;entryDy=0;" edge="1" parent="1" source="FJ30JDf7qLVt8mmUW5T5-352" target="FJ30JDf7qLVt8mmUW5T5-344">
          <mxGeometry relative="1" as="geometry">
            <Array as="points">
              <mxPoint x="3459.95" y="310" />
              <mxPoint x="3459.95" y="520" />
              <mxPoint x="3129.95" y="520" />
              <mxPoint x="3129.95" y="175" />
            </Array>
          </mxGeometry>
        </mxCell>
        <mxCell id="FJ30JDf7qLVt8mmUW5T5-352" value="while (current != nullptr)" style="rhombus;whiteSpace=wrap;html=1;" vertex="1" parent="1">
          <mxGeometry x="3253.92" y="270" width="130" height="80" as="geometry" />
        </mxCell>
        <mxCell id="FJ30JDf7qLVt8mmUW5T5-353" style="edgeStyle=orthogonalEdgeStyle;rounded=0;orthogonalLoop=1;jettySize=auto;html=1;exitX=0.5;exitY=1;exitDx=0;exitDy=0;" edge="1" parent="1" source="FJ30JDf7qLVt8mmUW5T5-354">
          <mxGeometry relative="1" as="geometry">
            <mxPoint x="3310.1722222222224" y="430" as="targetPoint" />
          </mxGeometry>
        </mxCell>
        <mxCell id="FJ30JDf7qLVt8mmUW5T5-354" value="&lt;font style=&quot;font-size: 14px;&quot;&gt;Node* temp = current;&lt;/font&gt;" style="rounded=0;whiteSpace=wrap;html=1;" vertex="1" parent="1">
          <mxGeometry x="3220" y="370" width="180" height="30" as="geometry" />
        </mxCell>
        <mxCell id="FJ30JDf7qLVt8mmUW5T5-355" style="edgeStyle=orthogonalEdgeStyle;rounded=0;orthogonalLoop=1;jettySize=auto;html=1;exitX=0.5;exitY=1;exitDx=0;exitDy=0;entryX=0;entryY=0.5;entryDx=0;entryDy=0;" edge="1" parent="1" source="FJ30JDf7qLVt8mmUW5T5-356" target="FJ30JDf7qLVt8mmUW5T5-352">
          <mxGeometry relative="1" as="geometry">
            <Array as="points">
              <mxPoint x="3315" y="510" />
              <mxPoint x="3150" y="510" />
              <mxPoint x="3150" y="310" />
            </Array>
          </mxGeometry>
        </mxCell>
        <mxCell id="FJ30JDf7qLVt8mmUW5T5-356" value="current = current-&amp;gt;next;" style="rounded=0;whiteSpace=wrap;html=1;" vertex="1" parent="1">
          <mxGeometry x="3221.9199999999996" y="410" width="180" height="30" as="geometry" />
        </mxCell>
        <mxCell id="FJ30JDf7qLVt8mmUW5T5-363" value="delete temp;" style="rounded=0;whiteSpace=wrap;html=1;" vertex="1" parent="1">
          <mxGeometry x="3221.92" y="450" width="180" height="30" as="geometry" />
        </mxCell>
        <mxCell id="FJ30JDf7qLVt8mmUW5T5-364" value="table[i] = nullptr;" style="rounded=0;whiteSpace=wrap;html=1;" vertex="1" parent="1">
          <mxGeometry x="3420" y="420" width="120" height="30" as="geometry" />
        </mxCell>
        <mxCell id="FJ30JDf7qLVt8mmUW5T5-390" style="edgeStyle=orthogonalEdgeStyle;rounded=0;orthogonalLoop=1;jettySize=auto;html=1;exitX=0.5;exitY=1;exitDx=0;exitDy=0;entryX=0.5;entryY=0;entryDx=0;entryDy=0;" edge="1" parent="1" source="FJ30JDf7qLVt8mmUW5T5-365" target="FJ30JDf7qLVt8mmUW5T5-368">
          <mxGeometry relative="1" as="geometry" />
        </mxCell>
        <mxCell id="FJ30JDf7qLVt8mmUW5T5-365" value="char fio[100], phone[20], passport[20], birthDate[20];" style="rounded=0;whiteSpace=wrap;html=1;" vertex="1" parent="1">
          <mxGeometry x="3590" y="228" width="300" height="30" as="geometry" />
        </mxCell>
        <mxCell id="FJ30JDf7qLVt8mmUW5T5-366" style="edgeStyle=orthogonalEdgeStyle;rounded=0;orthogonalLoop=1;jettySize=auto;html=1;exitX=0.5;exitY=1;exitDx=0;exitDy=0;" edge="1" parent="1" source="FJ30JDf7qLVt8mmUW5T5-368">
          <mxGeometry relative="1" as="geometry">
            <mxPoint x="3730.04" y="379.9600000000002" as="targetPoint" />
          </mxGeometry>
        </mxCell>
        <mxCell id="FJ30JDf7qLVt8mmUW5T5-367" style="edgeStyle=orthogonalEdgeStyle;rounded=0;orthogonalLoop=1;jettySize=auto;html=1;exitX=1;exitY=0.5;exitDx=0;exitDy=0;" edge="1" parent="1" source="FJ30JDf7qLVt8mmUW5T5-368">
          <mxGeometry relative="1" as="geometry">
            <mxPoint x="3942.04" y="369.96" as="targetPoint" />
          </mxGeometry>
        </mxCell>
        <mxCell id="FJ30JDf7qLVt8mmUW5T5-368" value="while (fscanf(file, &quot;%s %s %s %s&quot;, fio, phone, passport, birthDate) != EOF)&amp;nbsp;" style="rhombus;whiteSpace=wrap;html=1;" vertex="1" parent="1">
          <mxGeometry x="3640.04" y="279.96" width="180" height="80" as="geometry" />
        </mxCell>
        <mxCell id="FJ30JDf7qLVt8mmUW5T5-369" value="Student student;" style="rounded=0;whiteSpace=wrap;html=1;" vertex="1" parent="1">
          <mxGeometry x="3640.04" y="379.96" width="180" height="30" as="geometry" />
        </mxCell>
        <mxCell id="FJ30JDf7qLVt8mmUW5T5-370" style="edgeStyle=orthogonalEdgeStyle;rounded=0;orthogonalLoop=1;jettySize=auto;html=1;exitX=0.5;exitY=1;exitDx=0;exitDy=0;" edge="1" parent="1">
          <mxGeometry relative="1" as="geometry">
            <mxPoint x="3730.04" y="429.9600000000002" as="targetPoint" />
            <mxPoint x="3730.04" y="409.96" as="sourcePoint" />
          </mxGeometry>
        </mxCell>
        <mxCell id="FJ30JDf7qLVt8mmUW5T5-371" value="&amp;nbsp;student.fio = fio;" style="rounded=0;whiteSpace=wrap;html=1;" vertex="1" parent="1">
          <mxGeometry x="3640.04" y="429.96" width="180" height="30" as="geometry" />
        </mxCell>
        <mxCell id="FJ30JDf7qLVt8mmUW5T5-372" style="edgeStyle=orthogonalEdgeStyle;rounded=0;orthogonalLoop=1;jettySize=auto;html=1;exitX=0.5;exitY=1;exitDx=0;exitDy=0;" edge="1" parent="1">
          <mxGeometry relative="1" as="geometry">
            <mxPoint x="3730.04" y="479.9600000000002" as="targetPoint" />
            <mxPoint x="3730.04" y="459.96" as="sourcePoint" />
          </mxGeometry>
        </mxCell>
        <mxCell id="FJ30JDf7qLVt8mmUW5T5-373" value="student.phone = phone;" style="rounded=0;whiteSpace=wrap;html=1;" vertex="1" parent="1">
          <mxGeometry x="3640.04" y="479.96" width="180" height="30" as="geometry" />
        </mxCell>
        <mxCell id="FJ30JDf7qLVt8mmUW5T5-374" style="edgeStyle=orthogonalEdgeStyle;rounded=0;orthogonalLoop=1;jettySize=auto;html=1;exitX=0.5;exitY=1;exitDx=0;exitDy=0;" edge="1" parent="1">
          <mxGeometry relative="1" as="geometry">
            <mxPoint x="3730.04" y="529.9600000000003" as="targetPoint" />
            <mxPoint x="3730.04" y="509.96" as="sourcePoint" />
          </mxGeometry>
        </mxCell>
        <mxCell id="FJ30JDf7qLVt8mmUW5T5-375" value="student.passport = passport;" style="rounded=0;whiteSpace=wrap;html=1;" vertex="1" parent="1">
          <mxGeometry x="3640.04" y="529.96" width="180" height="30" as="geometry" />
        </mxCell>
        <mxCell id="FJ30JDf7qLVt8mmUW5T5-376" style="edgeStyle=orthogonalEdgeStyle;rounded=0;orthogonalLoop=1;jettySize=auto;html=1;exitX=0.5;exitY=1;exitDx=0;exitDy=0;" edge="1" parent="1">
          <mxGeometry relative="1" as="geometry">
            <mxPoint x="3730.04" y="579.9600000000003" as="targetPoint" />
            <mxPoint x="3730.04" y="559.96" as="sourcePoint" />
          </mxGeometry>
        </mxCell>
        <mxCell id="FJ30JDf7qLVt8mmUW5T5-391" style="edgeStyle=orthogonalEdgeStyle;rounded=0;orthogonalLoop=1;jettySize=auto;html=1;exitX=0.5;exitY=1;exitDx=0;exitDy=0;entryX=0.5;entryY=0;entryDx=0;entryDy=0;" edge="1" parent="1" source="FJ30JDf7qLVt8mmUW5T5-377" target="FJ30JDf7qLVt8mmUW5T5-382">
          <mxGeometry relative="1" as="geometry" />
        </mxCell>
        <mxCell id="FJ30JDf7qLVt8mmUW5T5-377" value="student.birthDate = birthDate;" style="rounded=0;whiteSpace=wrap;html=1;" vertex="1" parent="1">
          <mxGeometry x="3640.04" y="579.96" width="180" height="30" as="geometry" />
        </mxCell>
        <mxCell id="FJ30JDf7qLVt8mmUW5T5-392" style="edgeStyle=orthogonalEdgeStyle;rounded=0;orthogonalLoop=1;jettySize=auto;html=1;exitX=0.5;exitY=1;exitDx=0;exitDy=0;entryX=0;entryY=0.5;entryDx=0;entryDy=0;" edge="1" parent="1" source="FJ30JDf7qLVt8mmUW5T5-382" target="FJ30JDf7qLVt8mmUW5T5-368">
          <mxGeometry relative="1" as="geometry" />
        </mxCell>
        <mxCell id="FJ30JDf7qLVt8mmUW5T5-382" value="insert(table, student, collisions);&amp;nbsp;" style="rounded=0;whiteSpace=wrap;html=1;" vertex="1" parent="1">
          <mxGeometry x="3640.04" y="630" width="180" height="30" as="geometry" />
        </mxCell>
        <mxCell id="FJ30JDf7qLVt8mmUW5T5-383" style="edgeStyle=orthogonalEdgeStyle;rounded=0;orthogonalLoop=1;jettySize=auto;html=1;exitX=0.5;exitY=1;exitDx=0;exitDy=0;" edge="1" parent="1" source="FJ30JDf7qLVt8mmUW5T5-384">
          <mxGeometry relative="1" as="geometry">
            <mxPoint x="3961.84" y="419.96" as="targetPoint" />
          </mxGeometry>
        </mxCell>
        <mxCell id="FJ30JDf7qLVt8mmUW5T5-384" value="fclose(file);" style="rounded=0;whiteSpace=wrap;html=1;" vertex="1" parent="1">
          <mxGeometry x="3872.04" y="369.96" width="180" height="30" as="geometry" />
        </mxCell>
        <mxCell id="FJ30JDf7qLVt8mmUW5T5-385" style="edgeStyle=orthogonalEdgeStyle;rounded=0;orthogonalLoop=1;jettySize=auto;html=1;exitX=0.5;exitY=1;exitDx=0;exitDy=0;" edge="1" parent="1" source="FJ30JDf7qLVt8mmUW5T5-386">
          <mxGeometry relative="1" as="geometry">
            <mxPoint x="3967.4399999999996" y="479.96" as="targetPoint" />
          </mxGeometry>
        </mxCell>
        <mxCell id="FJ30JDf7qLVt8mmUW5T5-386" value="cout &amp;lt;&amp;lt; &quot;Данные загружены из файла.&quot; &amp;lt;&amp;lt; endl;" style="shape=parallelogram;perimeter=parallelogramPerimeter;whiteSpace=wrap;html=1;fixedSize=1;" vertex="1" parent="1">
          <mxGeometry x="3872.04" y="419.96" width="190" height="40" as="geometry" />
        </mxCell>
        <mxCell id="FJ30JDf7qLVt8mmUW5T5-387" value="return;" style="ellipse;whiteSpace=wrap;html=1;" vertex="1" parent="1">
          <mxGeometry x="3907.04" y="479.96" width="120" height="50" as="geometry" />
        </mxCell>
        <mxCell id="FJ30JDf7qLVt8mmUW5T5-388" value="}" style="text;html=1;align=center;verticalAlign=middle;resizable=0;points=[];autosize=1;strokeColor=none;fillColor=none;" vertex="1" parent="1">
          <mxGeometry x="4027.04" y="537.96" width="30" height="30" as="geometry" />
        </mxCell>
        <mxCell id="FJ30JDf7qLVt8mmUW5T5-393" value="Student generateStudent()&amp;nbsp;" style="shape=process;whiteSpace=wrap;html=1;backgroundOutline=1;" vertex="1" parent="1">
          <mxGeometry x="2710" y="645" width="280" height="30" as="geometry" />
        </mxCell>
        <mxCell id="FJ30JDf7qLVt8mmUW5T5-394" style="edgeStyle=orthogonalEdgeStyle;rounded=0;orthogonalLoop=1;jettySize=auto;html=1;exitX=0.5;exitY=1;exitDx=0;exitDy=0;" edge="1" parent="1">
          <mxGeometry relative="1" as="geometry">
            <mxPoint x="2857.5" y="695.0000000000002" as="targetPoint" />
            <mxPoint x="2857.5" y="675" as="sourcePoint" />
          </mxGeometry>
        </mxCell>
        <mxCell id="FJ30JDf7qLVt8mmUW5T5-395" value="Student student;" style="rounded=0;whiteSpace=wrap;html=1;" vertex="1" parent="1">
          <mxGeometry x="2767.5" y="695" width="180" height="30" as="geometry" />
        </mxCell>
        <mxCell id="FJ30JDf7qLVt8mmUW5T5-396" style="edgeStyle=orthogonalEdgeStyle;rounded=0;orthogonalLoop=1;jettySize=auto;html=1;exitX=0.5;exitY=1;exitDx=0;exitDy=0;" edge="1" parent="1">
          <mxGeometry relative="1" as="geometry">
            <mxPoint x="2857.5" y="745.0000000000002" as="targetPoint" />
            <mxPoint x="2857.5" y="725" as="sourcePoint" />
          </mxGeometry>
        </mxCell>
        <mxCell id="FJ30JDf7qLVt8mmUW5T5-397" value="student.fio = &quot;Student&quot; + to_string(rand() % 1000);" style="rounded=0;whiteSpace=wrap;html=1;" vertex="1" parent="1">
          <mxGeometry x="2767.5" y="745" width="180" height="30" as="geometry" />
        </mxCell>
        <mxCell id="FJ30JDf7qLVt8mmUW5T5-398" style="edgeStyle=orthogonalEdgeStyle;rounded=0;orthogonalLoop=1;jettySize=auto;html=1;exitX=0.5;exitY=1;exitDx=0;exitDy=0;" edge="1" parent="1">
          <mxGeometry relative="1" as="geometry">
            <mxPoint x="2857.5" y="795.0000000000002" as="targetPoint" />
            <mxPoint x="2857.5" y="775" as="sourcePoint" />
          </mxGeometry>
        </mxCell>
        <mxCell id="FJ30JDf7qLVt8mmUW5T5-399" value="student.phone = &quot;+7&quot; + to_string(rand() % 1000000000);" style="rounded=0;whiteSpace=wrap;html=1;" vertex="1" parent="1">
          <mxGeometry x="2767.5" y="795" width="180" height="30" as="geometry" />
        </mxCell>
        <mxCell id="FJ30JDf7qLVt8mmUW5T5-400" style="edgeStyle=orthogonalEdgeStyle;rounded=0;orthogonalLoop=1;jettySize=auto;html=1;exitX=0.5;exitY=1;exitDx=0;exitDy=0;" edge="1" parent="1">
          <mxGeometry relative="1" as="geometry">
            <mxPoint x="2857.5" y="845.0000000000002" as="targetPoint" />
            <mxPoint x="2857.5" y="825" as="sourcePoint" />
          </mxGeometry>
        </mxCell>
        <mxCell id="FJ30JDf7qLVt8mmUW5T5-401" value="student.passport = to_string(rand() % 1000000000);" style="rounded=0;whiteSpace=wrap;html=1;" vertex="1" parent="1">
          <mxGeometry x="2767.5" y="845" width="180" height="30" as="geometry" />
        </mxCell>
        <mxCell id="FJ30JDf7qLVt8mmUW5T5-402" style="edgeStyle=orthogonalEdgeStyle;rounded=0;orthogonalLoop=1;jettySize=auto;html=1;exitX=0.5;exitY=1;exitDx=0;exitDy=0;" edge="1" parent="1">
          <mxGeometry relative="1" as="geometry">
            <mxPoint x="2857.5" y="895.0000000000002" as="targetPoint" />
            <mxPoint x="2857.5" y="875" as="sourcePoint" />
          </mxGeometry>
        </mxCell>
        <mxCell id="FJ30JDf7qLVt8mmUW5T5-403" value="student.birthDate = generateBirthDate();" style="rounded=0;whiteSpace=wrap;html=1;" vertex="1" parent="1">
          <mxGeometry x="2767.5" y="895" width="180" height="30" as="geometry" />
        </mxCell>
        <mxCell id="FJ30JDf7qLVt8mmUW5T5-404" style="edgeStyle=orthogonalEdgeStyle;rounded=0;orthogonalLoop=1;jettySize=auto;html=1;exitX=0.5;exitY=1;exitDx=0;exitDy=0;" edge="1" parent="1">
          <mxGeometry relative="1" as="geometry">
            <mxPoint x="2857.5" y="945.0000000000002" as="targetPoint" />
            <mxPoint x="2857.5" y="925" as="sourcePoint" />
          </mxGeometry>
        </mxCell>
        <mxCell id="FJ30JDf7qLVt8mmUW5T5-405" value="student.isDeleted = false;" style="rounded=0;whiteSpace=wrap;html=1;" vertex="1" parent="1">
          <mxGeometry x="2767.5" y="945" width="180" height="30" as="geometry" />
        </mxCell>
        <mxCell id="FJ30JDf7qLVt8mmUW5T5-406" style="edgeStyle=orthogonalEdgeStyle;rounded=0;orthogonalLoop=1;jettySize=auto;html=1;exitX=0.5;exitY=1;exitDx=0;exitDy=0;" edge="1" parent="1">
          <mxGeometry relative="1" as="geometry">
            <mxPoint x="2857.5" y="995.0000000000002" as="targetPoint" />
            <mxPoint x="2857.5" y="975" as="sourcePoint" />
          </mxGeometry>
        </mxCell>
        <mxCell id="FJ30JDf7qLVt8mmUW5T5-407" value="return student;" style="ellipse;whiteSpace=wrap;html=1;" vertex="1" parent="1">
          <mxGeometry x="2798" y="995" width="120" height="50" as="geometry" />
        </mxCell>
        <mxCell id="FJ30JDf7qLVt8mmUW5T5-408" value="{" style="text;html=1;align=center;verticalAlign=middle;resizable=0;points=[];autosize=1;strokeColor=none;fillColor=none;" vertex="1" parent="1">
          <mxGeometry x="2735" y="678" width="30" height="30" as="geometry" />
        </mxCell>
        <mxCell id="FJ30JDf7qLVt8mmUW5T5-409" value="}" style="text;html=1;align=center;verticalAlign=middle;resizable=0;points=[];autosize=1;strokeColor=none;fillColor=none;" vertex="1" parent="1">
          <mxGeometry x="2935" y="1048" width="30" height="30" as="geometry" />
        </mxCell>
      </root>
    </mxGraphModel>
  </diagram>
</mxfile>
